<svg width="36" height="28" viewBox="0 0 36 28" fill="none" xmlns="http://www.w3.org/2000/svg">
<path d="M3 28C1.34312 28 0 26.6562 0 25V3C0 1.34312 1.34312 0 3 0H33C34.6562 0 36 1.34312 36 3V3.15188H31.2812L30.2188 6.125L29.1625 3.15188H23.0875V7.1L21.3312 3.15188H16.4188L11.3125 14.6938H15.425V24.9312H28.1562L30.15 22.7375L32.1437 24.9312H36V25C36 26.6562 34.6562 28 33 28H3ZM30.1625 20.75L27.525 23.6437H24.4062L28.625 19.1625L24.4062 14.6313H27.6187L30.2125 17.55L32.8375 14.6313H36L31.75 19.1375L36 23.6437H32.7875L30.1625 20.75ZM36 16.5562V21.7625L33.5438 19.1437L36 16.5562ZM19.225 21.5688H24.4125V23.6437H16.7875V14.6938H24.4125V16.7625H19.225V18.1625H24.2812V20.1812H19.225V21.575V21.5688ZM33.5812 7.10625L31.275 13.3938H29.125L26.825 7.125V13.3938H24.4062V4.4375H28.2313L30.225 10.0188L32.2375 4.4375H36V13.3938H33.5812V7.10625ZM20.9062 11.6H16.7875L16.0438 13.3938H13.3562L17.2563 4.4375H20.4562L24.4125 13.3938H21.6562L20.9062 11.6ZM18.8438 6.65625L17.625 9.5875H20.0562L18.8438 6.65625Z" fill="#0063AB"/>
</svg>
