<svg width="21" height="21" viewBox="0 0 21 21" fill="none" xmlns="http://www.w3.org/2000/svg">
<g clip-path="url(#clip0_1082_3927)">
<path d="M14.5511 18V16.3333C14.5511 15.4493 14.1999 14.6014 13.5748 13.9763C12.9497 13.3512 12.1018 13 11.2178 13H4.55111C3.66705 13 2.81921 13.3512 2.19408 13.9763C1.56896 14.6014 1.21777 15.4493 1.21777 16.3333V18" stroke="#676767" stroke-width="2" stroke-linecap="round" stroke-linejoin="round"/>
<path d="M7.88509 9.66667C9.72604 9.66667 11.2184 8.17428 11.2184 6.33333C11.2184 4.49238 9.72604 3 7.88509 3C6.04414 3 4.55176 4.49238 4.55176 6.33333C4.55176 8.17428 6.04414 9.66667 7.88509 9.66667Z" stroke="#676767" stroke-width="2" stroke-linecap="round" stroke-linejoin="round"/>
<path d="M19.5518 17.9999V16.3333C19.5512 15.5947 19.3054 14.8773 18.8529 14.2935C18.4004 13.7098 17.7669 13.2929 17.0518 13.1083" stroke="#676767" stroke-width="2" stroke-linecap="round" stroke-linejoin="round"/>
<path d="M13.7178 3.10828C14.4348 3.29186 15.0703 3.70886 15.5241 4.29353C15.978 4.87821 16.2243 5.5973 16.2243 6.33744C16.2243 7.07758 15.978 7.79668 15.5241 8.38135C15.0703 8.96603 14.4348 9.38303 13.7178 9.56661" stroke="#676767" stroke-width="2" stroke-linecap="round" stroke-linejoin="round"/>
</g>
<defs>
<clipPath id="clip0_1082_3927">
<rect width="20" height="20" fill="white" transform="translate(0.384766 0.5)"/>
</clipPath>
</defs>
</svg>
