<svg width="21" height="21" viewBox="0 0 21 21" fill="none" xmlns="http://www.w3.org/2000/svg">
<g clip-path="url(#clip0_1082_3944)">
<mask id="path-1-inside-1_1082_3944" fill="white">
<path fill-rule="evenodd" clip-rule="evenodd" d="M5.2344 7.51958C5.83373 7.51958 6.40852 7.28149 6.83231 6.8577C7.2561 6.43391 7.49418 5.85912 7.49418 5.25979C7.49418 4.66045 7.2561 4.08567 6.83231 3.66188C6.40852 3.23808 5.83373 3 5.2344 3C4.63506 3 4.06028 3.23808 3.63649 3.66188C3.21269 4.08567 2.97461 4.66045 2.97461 5.25979C2.97461 5.85912 3.21269 6.43391 3.63649 6.8577C4.06028 7.28149 4.63506 7.51958 5.2344 7.51958ZM5.2344 6.38968C5.53406 6.38968 5.82146 6.27064 6.03335 6.05874C6.24525 5.84685 6.36429 5.55945 6.36429 5.25979C6.36429 4.96012 6.24525 4.67273 6.03335 4.46083C5.82146 4.24894 5.53406 4.12989 5.2344 4.12989C4.93473 4.12989 4.64734 4.24894 4.43544 4.46083C4.22355 4.67273 4.1045 4.96012 4.1045 5.25979C4.1045 5.55945 4.22355 5.84685 4.43544 6.05874C4.64734 6.27064 4.93473 6.38968 5.2344 6.38968Z"/>
</mask>
<path fill-rule="evenodd" clip-rule="evenodd" d="M5.2344 7.51958C5.83373 7.51958 6.40852 7.28149 6.83231 6.8577C7.2561 6.43391 7.49418 5.85912 7.49418 5.25979C7.49418 4.66045 7.2561 4.08567 6.83231 3.66188C6.40852 3.23808 5.83373 3 5.2344 3C4.63506 3 4.06028 3.23808 3.63649 3.66188C3.21269 4.08567 2.97461 4.66045 2.97461 5.25979C2.97461 5.85912 3.21269 6.43391 3.63649 6.8577C4.06028 7.28149 4.63506 7.51958 5.2344 7.51958ZM5.2344 6.38968C5.53406 6.38968 5.82146 6.27064 6.03335 6.05874C6.24525 5.84685 6.36429 5.55945 6.36429 5.25979C6.36429 4.96012 6.24525 4.67273 6.03335 4.46083C5.82146 4.24894 5.53406 4.12989 5.2344 4.12989C4.93473 4.12989 4.64734 4.24894 4.43544 4.46083C4.22355 4.67273 4.1045 4.96012 4.1045 5.25979C4.1045 5.55945 4.22355 5.84685 4.43544 6.05874C4.64734 6.27064 4.93473 6.38968 5.2344 6.38968Z" fill="#272727"/>
<path d="M5.2344 3V1.64413V3ZM2.97461 5.25979H1.61874H2.97461ZM5.2344 8.87545C6.19333 8.87545 7.11299 8.49451 7.79105 7.81644L5.87356 5.89895C5.70404 6.06847 5.47413 6.1637 5.2344 6.1637V8.87545ZM7.79105 7.81644C8.46912 7.13838 8.85006 6.21872 8.85006 5.25979H6.13831C6.13831 5.49952 6.04308 5.72943 5.87356 5.89895L7.79105 7.81644ZM8.85006 5.25979C8.85006 4.30085 8.46912 3.3812 7.79105 2.70313L5.87356 4.62062C6.04308 4.79014 6.13831 5.02006 6.13831 5.25979H8.85006ZM7.79105 2.70313C7.11299 2.02506 6.19333 1.64413 5.2344 1.64413V4.35587C5.47413 4.35587 5.70404 4.45111 5.87356 4.62062L7.79105 2.70313ZM5.2344 1.64413C4.27546 1.64413 3.35581 2.02506 2.67774 2.70313L4.59523 4.62062C4.76475 4.45111 4.99466 4.35587 5.2344 4.35587V1.64413ZM2.67774 2.70313C1.99967 3.3812 1.61874 4.30086 1.61874 5.25979H4.33048C4.33048 5.02005 4.42572 4.79014 4.59523 4.62062L2.67774 2.70313ZM1.61874 5.25979C1.61874 6.21872 1.99967 7.13838 2.67774 7.81644L4.59523 5.89895C4.42572 5.72943 4.33048 5.49952 4.33048 5.25979H1.61874ZM2.67774 7.81644C3.35581 8.49451 4.27546 8.87545 5.2344 8.87545V6.1637C4.99466 6.1637 4.76475 6.06847 4.59523 5.89895L2.67774 7.81644ZM5.2344 7.74555C5.89366 7.74555 6.52593 7.48366 6.9921 7.01749L5.07461 5.1C5.11698 5.05762 5.17446 5.03381 5.2344 5.03381V7.74555ZM6.9921 7.01749C7.45827 6.55132 7.72016 5.91905 7.72016 5.25979H5.00842C5.00842 5.19985 5.03223 5.14237 5.07461 5.1L6.9921 7.01749ZM7.72016 5.25979C7.72016 4.60052 7.45827 3.96826 6.9921 3.50209L5.07461 5.41958C5.03223 5.3772 5.00842 5.31972 5.00842 5.25979H7.72016ZM6.9921 3.50209C6.52593 3.03591 5.89366 2.77402 5.2344 2.77402V5.48577C5.17446 5.48577 5.11698 5.46196 5.07461 5.41958L6.9921 3.50209ZM5.2344 2.77402C4.57513 2.77402 3.94287 3.03591 3.47669 3.50209L5.39419 5.41958C5.35181 5.46196 5.29433 5.48577 5.2344 5.48577V2.77402ZM3.47669 3.50209C3.01052 3.96826 2.74863 4.60052 2.74863 5.25979H5.46038C5.46038 5.31972 5.43657 5.3772 5.39419 5.41958L3.47669 3.50209ZM2.74863 5.25979C2.74863 5.91905 3.01052 6.55132 3.47669 7.01749L5.39419 5.1C5.43657 5.14237 5.46038 5.19985 5.46038 5.25979H2.74863ZM3.47669 7.01749C3.94287 7.48366 4.57513 7.74555 5.2344 7.74555V5.03381C5.29433 5.03381 5.35181 5.05762 5.39419 5.1L3.47669 7.01749Z" fill="#676767" mask="url(#path-1-inside-1_1082_3944)"/>
<mask id="path-3-inside-2_1082_3944" fill="white">
<path d="M7.08153 10.5714L3.86133 9.21436L7.08153 10.5725V10.5714ZM7.08153 10.5714L7.1787 10.6126L7.08153 10.4657V10.5714Z"/>
</mask>
<path d="M7.08153 10.5714L3.86133 9.21436L7.08153 10.5725V10.5714ZM7.08153 10.5714L7.1787 10.6126L7.08153 10.4657V10.5714Z" fill="#272727"/>
<path d="M3.86133 9.21436L4.38786 7.96489L3.33443 10.4637L3.86133 9.21436ZM7.08153 10.5725L6.55463 11.8218L8.4374 12.6159V10.5725H7.08153ZM7.1787 10.6126L6.64898 11.8607L10.7938 13.6199L8.30952 9.86451L7.1787 10.6126ZM7.08153 10.4657L8.21235 9.71763L5.72565 5.95869V10.4657H7.08153ZM7.60805 9.3219L4.38786 7.96489L3.3348 10.4638L6.555 11.8208L7.60805 9.3219ZM3.33443 10.4637L6.55463 11.8218L7.60843 9.32318L4.38823 7.96505L3.33443 10.4637ZM8.4374 10.5725V10.5714H5.72565V10.5725H8.4374ZM6.55181 11.8195L6.64898 11.8607L7.70842 9.36449L7.61124 9.32324L6.55181 11.8195ZM8.30952 9.86451L8.21235 9.71763L5.9507 11.2138L6.04787 11.3607L8.30952 9.86451ZM5.72565 10.4657V10.5714H8.4374V10.4657H5.72565Z" fill="#676767" mask="url(#path-3-inside-2_1082_3944)"/>
<mask id="path-5-inside-3_1082_3944" fill="white">
<path fill-rule="evenodd" clip-rule="evenodd" d="M2.30846 8.64382C2.62652 8.40259 3.16266 8.08452 3.8615 8.08452H6.68397C7.45399 8.08452 8.02854 8.49015 8.30819 8.71613C8.63586 8.98109 8.91947 9.29972 9.13867 9.57203C9.48837 10.0048 9.81095 10.4957 9.99512 10.7742L9.99908 10.7799C10.0437 10.8477 10.0776 10.8997 10.103 10.9369C10.22 11.1092 10.3008 11.2962 10.3477 11.4872C10.3889 11.268 10.4753 11.0539 10.6104 10.8578C10.6663 10.7771 10.7335 10.6759 10.812 10.5584L10.8183 10.5483C11.0329 10.2251 11.3228 9.78953 11.6092 9.43305C11.8126 9.17939 12.0792 8.8811 12.4018 8.63421C12.7086 8.3992 13.2311 8.08452 13.9147 8.08452H16.6429C17.3959 8.08452 17.9558 8.48563 18.2247 8.7054C18.5422 8.96471 18.8156 9.276 19.0275 9.54152C19.3648 9.9641 19.6772 10.4437 19.854 10.7155L19.8563 10.7194L19.858 10.7217L19.8614 10.7268C19.9032 10.7906 19.9348 10.8398 19.9585 10.8748C20.1286 11.1284 20.2248 11.4242 20.2364 11.7293C20.248 12.0344 20.1746 12.3367 20.0243 12.6025C19.8741 12.8683 19.6529 13.087 19.3855 13.2344C19.1181 13.3817 18.8149 13.4518 18.51 13.4368C18.6727 14.0261 18.8292 14.5616 18.9422 14.939C19.1196 15.5339 18.7631 16.1768 18.1332 16.3085C16.0937 16.735 14.6509 16.7214 12.4589 16.3028C12.3091 16.2738 12.1671 16.2134 12.0423 16.1257C11.9174 16.0381 11.8125 15.925 11.7343 15.794C11.6561 15.663 11.6065 15.5169 11.5886 15.3654C11.5708 15.2139 11.5851 15.0603 11.6306 14.9147C11.747 14.5402 11.9063 14.0153 12.069 13.4357C11.7008 13.4593 11.3354 13.358 11.0318 13.1481C10.7009 12.9207 10.4649 12.5798 10.3686 12.19C10.3287 12.412 10.2447 12.6239 10.1217 12.813C9.99868 13.0021 9.83904 13.1646 9.6522 13.2911C9.44698 13.4306 9.21356 13.5233 8.96849 13.5626C8.72343 13.6018 8.47273 13.5867 8.23419 13.5182L8.23758 13.5464L8.6144 16.9361C8.66388 17.3753 8.53988 17.8164 8.26882 18.1654C7.99775 18.5145 7.60107 18.7438 7.16333 18.8046C6.72559 18.8654 6.28143 18.7528 5.92551 18.4908C5.5696 18.2289 5.33009 17.8382 5.25805 17.4022L5.23488 17.2638L5.21228 17.4022C5.14318 17.8409 4.90462 18.235 4.54793 18.4996C4.19124 18.7643 3.74492 18.8783 3.30501 18.8172C2.86509 18.7561 2.46672 18.5248 2.19562 18.173C1.92451 17.8212 1.80234 17.3771 1.85537 16.9361L2.14801 14.3063L2.17569 13.5509C1.84414 13.6169 1.50046 13.5821 1.1888 13.4512C0.877147 13.3203 0.611763 13.0991 0.426755 12.8162C0.241747 12.5333 0.145567 12.2015 0.150577 11.8635C0.155586 11.5255 0.261556 11.1967 0.454867 10.9194C0.510231 10.8392 0.576895 10.7409 0.654293 10.6257L0.670111 10.6025C0.891571 10.272 1.19156 9.82569 1.48815 9.4613C1.69944 9.20142 1.9757 8.89579 2.30846 8.64382ZM3.86206 9.21442C3.51292 9.21442 3.21576 9.3743 2.99091 9.54434C2.76154 9.71835 2.55138 9.94546 2.36552 10.1737C2.10677 10.4923 1.83503 10.8951 1.60736 11.2341L1.59945 11.2454C1.52092 11.3623 1.44635 11.4736 1.38251 11.5657C1.3373 11.6264 1.30476 11.6956 1.2868 11.7691C1.26884 11.8426 1.26584 11.919 1.27797 11.9937C1.29011 12.0684 1.31713 12.1399 1.35743 12.204C1.39773 12.2681 1.4505 12.3234 1.51259 12.3666C1.57468 12.4099 1.64483 12.4403 1.71888 12.4559C1.79294 12.4716 1.86937 12.4722 1.94366 12.4577C2.01795 12.4432 2.08857 12.4139 2.15133 12.3717C2.2141 12.3294 2.26772 12.2749 2.30902 12.2115L3.41406 10.624L3.27621 14.3893L2.97905 17.0615C2.96385 17.2073 3.00589 17.3532 3.09628 17.4686C3.18667 17.5839 3.31835 17.6596 3.46351 17.6797C3.60867 17.6998 3.75596 17.6627 3.87427 17.5762C3.99259 17.4898 4.07269 17.3607 4.09764 17.2163L4.6592 13.8481L5.23884 13.7193L5.81282 13.8538L6.37325 17.2163C6.39801 17.361 6.47808 17.4903 6.59652 17.577C6.71496 17.6636 6.86246 17.7008 7.00782 17.6806C7.15317 17.6604 7.28497 17.5844 7.37531 17.4688C7.46565 17.3531 7.50744 17.2069 7.49185 17.061L7.11503 13.6713C7.11191 13.6438 7.10681 13.6166 7.09977 13.5899L7.08169 13.5193V10.5725L7.17943 10.6138L8.11724 12.0318L8.23362 12.2058C8.31775 12.3298 8.44769 12.4153 8.59485 12.4435C8.74201 12.4716 8.89435 12.4402 9.01833 12.3561C9.14232 12.272 9.22781 12.142 9.25599 11.9949C9.28417 11.8477 9.25274 11.6954 9.16861 11.5714L9.05901 11.4064L7.17943 10.6138L7.17886 10.6127L9.05788 11.4047L9.05562 11.4019C8.86975 11.1194 8.57259 10.6686 8.26017 10.281C8.06301 10.037 7.83759 9.78784 7.59918 9.59519C7.3766 9.41554 7.05797 9.21442 6.68454 9.21442H3.86206ZM13.0617 9.49519C13.2797 9.32854 13.5712 9.16922 13.9153 9.16922H16.6434C17.0118 9.16922 17.3242 9.36978 17.5394 9.54548C17.7711 9.73473 17.9897 9.97879 18.1801 10.2178C18.4829 10.5968 18.7704 11.0381 18.9501 11.3138L18.9518 11.3166C18.9925 11.3787 19.0298 11.4358 19.0591 11.4793C19.1425 11.6029 19.1734 11.7546 19.1449 11.9009C19.1165 12.0473 19.0311 12.1764 18.9074 12.2598C18.7838 12.3431 18.6322 12.374 18.4858 12.3456C18.3394 12.3171 18.2104 12.2317 18.127 12.1081C18.0553 12.0028 17.9489 11.9261 17.8264 11.8914C17.7038 11.8566 17.573 11.8662 17.4568 11.9182C17.3406 11.9703 17.2464 12.0616 17.1907 12.1762C17.1351 12.2907 17.1215 12.4212 17.1524 12.5448C17.4106 13.5707 17.7174 14.6266 17.9033 15.2486C16.0248 15.6407 14.7299 15.6316 12.6662 15.2384L12.6668 15.2367C12.9509 14.3279 13.2101 13.4114 13.4441 12.4883C13.4747 12.3649 13.4609 12.2347 13.4052 12.1205C13.3496 12.0062 13.2555 11.9151 13.1396 11.8631C13.0236 11.8111 12.893 11.8015 12.7707 11.8359C12.6483 11.8704 12.542 11.9467 12.4702 12.0516L12.4295 12.1115C12.3444 12.2331 12.2146 12.3162 12.0685 12.3426C11.9224 12.3689 11.7718 12.3364 11.6496 12.2521C11.5274 12.1678 11.4435 12.0385 11.4162 11.8926C11.389 11.7466 11.4206 11.5958 11.5041 11.4731C11.5657 11.3838 11.638 11.2753 11.7137 11.1612L11.7165 11.1573C11.9374 10.8245 12.2024 10.4268 12.4549 10.1127C12.6346 9.88896 12.8385 9.66637 13.0617 9.49519ZM15.4039 7.51958C16.0033 7.51958 16.578 7.28149 17.0018 6.8577C17.4256 6.43391 17.6637 5.85912 17.6637 5.25979C17.6637 4.66045 17.4256 4.08567 17.0018 3.66188C16.578 3.23808 16.0033 3 15.4039 3C14.8046 3 14.2298 3.23808 13.806 3.66188C13.3822 4.08567 13.1441 4.66045 13.1441 5.25979C13.1441 5.85912 13.3822 6.43391 13.806 6.8577C14.2298 7.28149 14.8046 7.51958 15.4039 7.51958ZM15.4039 6.38968C15.7036 6.38968 15.991 6.27064 16.2029 6.05874C16.4148 5.84685 16.5338 5.55945 16.5338 5.25979C16.5338 4.96012 16.4148 4.67273 16.2029 4.46083C15.991 4.24894 15.7036 4.12989 15.4039 4.12989C15.1043 4.12989 14.8169 4.24894 14.605 4.46083C14.3931 4.67273 14.274 4.96012 14.274 5.25979C14.274 5.55945 14.3931 5.84685 14.605 6.05874C14.8169 6.27064 15.1043 6.38968 15.4039 6.38968Z"/>
</mask>
<path fill-rule="evenodd" clip-rule="evenodd" d="M2.30846 8.64382C2.62652 8.40259 3.16266 8.08452 3.8615 8.08452H6.68397C7.45399 8.08452 8.02854 8.49015 8.30819 8.71613C8.63586 8.98109 8.91947 9.29972 9.13867 9.57203C9.48837 10.0048 9.81095 10.4957 9.99512 10.7742L9.99908 10.7799C10.0437 10.8477 10.0776 10.8997 10.103 10.9369C10.22 11.1092 10.3008 11.2962 10.3477 11.4872C10.3889 11.268 10.4753 11.0539 10.6104 10.8578C10.6663 10.7771 10.7335 10.6759 10.812 10.5584L10.8183 10.5483C11.0329 10.2251 11.3228 9.78953 11.6092 9.43305C11.8126 9.17939 12.0792 8.8811 12.4018 8.63421C12.7086 8.3992 13.2311 8.08452 13.9147 8.08452H16.6429C17.3959 8.08452 17.9558 8.48563 18.2247 8.7054C18.5422 8.96471 18.8156 9.276 19.0275 9.54152C19.3648 9.9641 19.6772 10.4437 19.854 10.7155L19.8563 10.7194L19.858 10.7217L19.8614 10.7268C19.9032 10.7906 19.9348 10.8398 19.9585 10.8748C20.1286 11.1284 20.2248 11.4242 20.2364 11.7293C20.248 12.0344 20.1746 12.3367 20.0243 12.6025C19.8741 12.8683 19.6529 13.087 19.3855 13.2344C19.1181 13.3817 18.8149 13.4518 18.51 13.4368C18.6727 14.0261 18.8292 14.5616 18.9422 14.939C19.1196 15.5339 18.7631 16.1768 18.1332 16.3085C16.0937 16.735 14.6509 16.7214 12.4589 16.3028C12.3091 16.2738 12.1671 16.2134 12.0423 16.1257C11.9174 16.0381 11.8125 15.925 11.7343 15.794C11.6561 15.663 11.6065 15.5169 11.5886 15.3654C11.5708 15.2139 11.5851 15.0603 11.6306 14.9147C11.747 14.5402 11.9063 14.0153 12.069 13.4357C11.7008 13.4593 11.3354 13.358 11.0318 13.1481C10.7009 12.9207 10.4649 12.5798 10.3686 12.19C10.3287 12.412 10.2447 12.6239 10.1217 12.813C9.99868 13.0021 9.83904 13.1646 9.6522 13.2911C9.44698 13.4306 9.21356 13.5233 8.96849 13.5626C8.72343 13.6018 8.47273 13.5867 8.23419 13.5182L8.23758 13.5464L8.6144 16.9361C8.66388 17.3753 8.53988 17.8164 8.26882 18.1654C7.99775 18.5145 7.60107 18.7438 7.16333 18.8046C6.72559 18.8654 6.28143 18.7528 5.92551 18.4908C5.5696 18.2289 5.33009 17.8382 5.25805 17.4022L5.23488 17.2638L5.21228 17.4022C5.14318 17.8409 4.90462 18.235 4.54793 18.4996C4.19124 18.7643 3.74492 18.8783 3.30501 18.8172C2.86509 18.7561 2.46672 18.5248 2.19562 18.173C1.92451 17.8212 1.80234 17.3771 1.85537 16.9361L2.14801 14.3063L2.17569 13.5509C1.84414 13.6169 1.50046 13.5821 1.1888 13.4512C0.877147 13.3203 0.611763 13.0991 0.426755 12.8162C0.241747 12.5333 0.145567 12.2015 0.150577 11.8635C0.155586 11.5255 0.261556 11.1967 0.454867 10.9194C0.510231 10.8392 0.576895 10.7409 0.654293 10.6257L0.670111 10.6025C0.891571 10.272 1.19156 9.82569 1.48815 9.4613C1.69944 9.20142 1.9757 8.89579 2.30846 8.64382ZM3.86206 9.21442C3.51292 9.21442 3.21576 9.3743 2.99091 9.54434C2.76154 9.71835 2.55138 9.94546 2.36552 10.1737C2.10677 10.4923 1.83503 10.8951 1.60736 11.2341L1.59945 11.2454C1.52092 11.3623 1.44635 11.4736 1.38251 11.5657C1.3373 11.6264 1.30476 11.6956 1.2868 11.7691C1.26884 11.8426 1.26584 11.919 1.27797 11.9937C1.29011 12.0684 1.31713 12.1399 1.35743 12.204C1.39773 12.2681 1.4505 12.3234 1.51259 12.3666C1.57468 12.4099 1.64483 12.4403 1.71888 12.4559C1.79294 12.4716 1.86937 12.4722 1.94366 12.4577C2.01795 12.4432 2.08857 12.4139 2.15133 12.3717C2.2141 12.3294 2.26772 12.2749 2.30902 12.2115L3.41406 10.624L3.27621 14.3893L2.97905 17.0615C2.96385 17.2073 3.00589 17.3532 3.09628 17.4686C3.18667 17.5839 3.31835 17.6596 3.46351 17.6797C3.60867 17.6998 3.75596 17.6627 3.87427 17.5762C3.99259 17.4898 4.07269 17.3607 4.09764 17.2163L4.6592 13.8481L5.23884 13.7193L5.81282 13.8538L6.37325 17.2163C6.39801 17.361 6.47808 17.4903 6.59652 17.577C6.71496 17.6636 6.86246 17.7008 7.00782 17.6806C7.15317 17.6604 7.28497 17.5844 7.37531 17.4688C7.46565 17.3531 7.50744 17.2069 7.49185 17.061L7.11503 13.6713C7.11191 13.6438 7.10681 13.6166 7.09977 13.5899L7.08169 13.5193V10.5725L7.17943 10.6138L8.11724 12.0318L8.23362 12.2058C8.31775 12.3298 8.44769 12.4153 8.59485 12.4435C8.74201 12.4716 8.89435 12.4402 9.01833 12.3561C9.14232 12.272 9.22781 12.142 9.25599 11.9949C9.28417 11.8477 9.25274 11.6954 9.16861 11.5714L9.05901 11.4064L7.17943 10.6138L7.17886 10.6127L9.05788 11.4047L9.05562 11.4019C8.86975 11.1194 8.57259 10.6686 8.26017 10.281C8.06301 10.037 7.83759 9.78784 7.59918 9.59519C7.3766 9.41554 7.05797 9.21442 6.68454 9.21442H3.86206ZM13.0617 9.49519C13.2797 9.32854 13.5712 9.16922 13.9153 9.16922H16.6434C17.0118 9.16922 17.3242 9.36978 17.5394 9.54548C17.7711 9.73473 17.9897 9.97879 18.1801 10.2178C18.4829 10.5968 18.7704 11.0381 18.9501 11.3138L18.9518 11.3166C18.9925 11.3787 19.0298 11.4358 19.0591 11.4793C19.1425 11.6029 19.1734 11.7546 19.1449 11.9009C19.1165 12.0473 19.0311 12.1764 18.9074 12.2598C18.7838 12.3431 18.6322 12.374 18.4858 12.3456C18.3394 12.3171 18.2104 12.2317 18.127 12.1081C18.0553 12.0028 17.9489 11.9261 17.8264 11.8914C17.7038 11.8566 17.573 11.8662 17.4568 11.9182C17.3406 11.9703 17.2464 12.0616 17.1907 12.1762C17.1351 12.2907 17.1215 12.4212 17.1524 12.5448C17.4106 13.5707 17.7174 14.6266 17.9033 15.2486C16.0248 15.6407 14.7299 15.6316 12.6662 15.2384L12.6668 15.2367C12.9509 14.3279 13.2101 13.4114 13.4441 12.4883C13.4747 12.3649 13.4609 12.2347 13.4052 12.1205C13.3496 12.0062 13.2555 11.9151 13.1396 11.8631C13.0236 11.8111 12.893 11.8015 12.7707 11.8359C12.6483 11.8704 12.542 11.9467 12.4702 12.0516L12.4295 12.1115C12.3444 12.2331 12.2146 12.3162 12.0685 12.3426C11.9224 12.3689 11.7718 12.3364 11.6496 12.2521C11.5274 12.1678 11.4435 12.0385 11.4162 11.8926C11.389 11.7466 11.4206 11.5958 11.5041 11.4731C11.5657 11.3838 11.638 11.2753 11.7137 11.1612L11.7165 11.1573C11.9374 10.8245 12.2024 10.4268 12.4549 10.1127C12.6346 9.88896 12.8385 9.66637 13.0617 9.49519ZM15.4039 7.51958C16.0033 7.51958 16.578 7.28149 17.0018 6.8577C17.4256 6.43391 17.6637 5.85912 17.6637 5.25979C17.6637 4.66045 17.4256 4.08567 17.0018 3.66188C16.578 3.23808 16.0033 3 15.4039 3C14.8046 3 14.2298 3.23808 13.806 3.66188C13.3822 4.08567 13.1441 4.66045 13.1441 5.25979C13.1441 5.85912 13.3822 6.43391 13.806 6.8577C14.2298 7.28149 14.8046 7.51958 15.4039 7.51958ZM15.4039 6.38968C15.7036 6.38968 15.991 6.27064 16.2029 6.05874C16.4148 5.84685 16.5338 5.55945 16.5338 5.25979C16.5338 4.96012 16.4148 4.67273 16.2029 4.46083C15.991 4.24894 15.7036 4.12989 15.4039 4.12989C15.1043 4.12989 14.8169 4.24894 14.605 4.46083C14.3931 4.67273 14.274 4.96012 14.274 5.25979C14.274 5.55945 14.3931 5.84685 14.605 6.05874C14.8169 6.27064 15.1043 6.38968 15.4039 6.38968Z" fill="#272727"/>
<path d="M2.30846 8.64382L3.12696 9.72476L3.1278 9.72413L2.30846 8.64382ZM8.30819 8.71613L9.16073 7.66182L9.16039 7.66154L8.30819 8.71613ZM9.13867 9.57203L8.08248 10.4222L8.08408 10.4242L9.13867 9.57203ZM9.99512 10.7742L8.86416 11.5221L8.87405 11.5371L8.88434 11.5518L9.99512 10.7742ZM9.99908 10.7799L11.1316 10.0343L11.1209 10.0182L11.1099 10.0024L9.99908 10.7799ZM10.103 10.9369L11.2249 10.1755L11.2233 10.1731L10.103 10.9369ZM10.3477 11.4872L9.0309 11.8105L11.6801 11.7379L10.3477 11.4872ZM10.6104 10.8578L9.49556 10.0861L9.49371 10.0887L10.6104 10.8578ZM10.812 10.5584L11.9394 11.3118L11.9546 11.2889L11.969 11.2654L10.812 10.5584ZM10.8183 10.5483L9.68888 9.79798L9.67469 9.81935L9.66131 9.84124L10.8183 10.5483ZM11.6092 9.43305L12.6661 10.2823L12.667 10.2812L11.6092 9.43305ZM12.4018 8.63421L13.2258 9.71094L13.2264 9.71053L12.4018 8.63421ZM18.2247 8.7054L17.3667 9.75528L17.367 9.75554L18.2247 8.7054ZM19.0275 9.54152L17.9676 10.3872L17.9678 10.3873L19.0275 9.54152ZM19.854 10.7155L21.0311 10.0426L21.0117 10.0087L20.9905 9.97596L19.854 10.7155ZM19.8563 10.7194L18.6792 11.3923L18.7209 11.4654L18.7714 11.5327L19.8563 10.7194ZM19.858 10.7217L20.9861 9.96959L20.9653 9.93841L20.9429 9.90842L19.858 10.7217ZM19.8614 10.7268L20.9957 9.98394L20.9895 9.97468L19.8614 10.7268ZM19.9585 10.8748L21.0847 10.1196L21.0811 10.1144L19.9585 10.8748ZM18.51 13.4368L18.5765 12.0826L16.7041 11.9907L17.203 13.7977L18.51 13.4368ZM18.9422 14.939L20.2415 14.5516L20.2411 14.5501L18.9422 14.939ZM18.1332 16.3085L17.8558 14.9812L17.8556 14.9813L18.1332 16.3085ZM12.4589 16.3028L12.2007 17.6339L12.2045 17.6346L12.4589 16.3028ZM11.6306 14.9147L12.9246 15.3197L12.9255 15.317L11.6306 14.9147ZM12.069 13.4357L13.3745 13.8021L13.8914 11.9604L11.9825 12.0826L12.069 13.4357ZM11.0318 13.1481L11.8027 12.0328L11.7997 12.0307L11.0318 13.1481ZM10.3686 12.19L11.6848 11.8647L9.03404 11.9503L10.3686 12.19ZM9.6522 13.2911L8.8923 12.1682L8.88972 12.1699L9.6522 13.2911ZM8.23419 13.5182L8.60839 12.215L6.64451 11.6511L6.88797 13.6797L8.23419 13.5182ZM8.23758 13.5464L9.5852 13.3966L9.58379 13.3849L8.23758 13.5464ZM8.6144 16.9361L7.26682 17.0859L7.26705 17.0879L8.6144 16.9361ZM5.25805 17.4022L6.59578 17.1812L6.59532 17.1784L5.25805 17.4022ZM5.23488 17.2638L6.57216 17.04L3.89673 17.0453L5.23488 17.2638ZM5.21228 17.4022L3.87411 17.1837L3.87292 17.1912L5.21228 17.4022ZM1.85537 16.9361L3.20159 17.098L3.20292 17.0861L1.85537 16.9361ZM2.14801 14.3063L3.49557 14.4562L3.50113 14.4062L3.50298 14.3559L2.14801 14.3063ZM2.17569 13.5509L3.53066 13.6006L3.59347 11.8867L1.91132 12.2211L2.17569 13.5509ZM0.454867 10.9194L1.56717 11.6948L1.57078 11.6896L0.454867 10.9194ZM0.654293 10.6257L-0.46541 9.86095L-0.471308 9.86973L0.654293 10.6257ZM0.670111 10.6025L1.78982 11.3672L1.79649 11.3573L0.670111 10.6025ZM1.48815 9.4613L2.53972 10.3172L2.54019 10.3166L1.48815 9.4613ZM2.99091 9.54434L2.17305 8.46291L2.17144 8.46413L2.99091 9.54434ZM2.36552 10.1737L1.31416 9.31752L1.31298 9.31897L2.36552 10.1737ZM1.60736 11.2341L2.71808 12.0117L2.7256 12.001L2.73291 11.9901L1.60736 11.2341ZM1.59945 11.2454L0.488724 10.4678L0.481162 10.4786L0.473811 10.4895L1.59945 11.2454ZM1.38251 11.5657L2.46996 12.3756L2.4837 12.3571L2.4968 12.3382L1.38251 11.5657ZM2.30902 12.2115L1.19621 11.4368L1.18426 11.454L1.17284 11.4715L2.30902 12.2115ZM3.41406 10.624L4.76902 10.6736L4.93787 6.06156L2.30124 9.84934L3.41406 10.624ZM3.27621 14.3893L4.62378 14.5392L4.62934 14.4892L4.63118 14.4389L3.27621 14.3893ZM2.97905 17.0615L1.63145 16.9117L1.63048 16.9209L2.97905 17.0615ZM4.09764 17.2163L5.43373 17.4473L5.43506 17.4393L4.09764 17.2163ZM4.6592 13.8481L4.36507 12.5245L3.47221 12.7229L3.32179 13.6251L4.6592 13.8481ZM5.23884 13.7193L5.54808 12.3992L5.24679 12.3286L4.94471 12.3957L5.23884 13.7193ZM5.81282 13.8538L7.15025 13.6309L7.00172 12.7397L6.12207 12.5336L5.81282 13.8538ZM6.37325 17.2163L5.03581 17.4392L5.03682 17.4451L6.37325 17.2163ZM7.49185 17.061L8.84005 16.9169L8.83942 16.9112L7.49185 17.061ZM7.11503 13.6713L8.4626 13.5215L8.46223 13.5182L7.11503 13.6713ZM7.09977 13.5899L5.78623 13.9262L5.78863 13.9353L7.09977 13.5899ZM7.08169 13.5193H5.72582V13.6901L5.76818 13.8556L7.08169 13.5193ZM7.08169 10.5725L7.60882 9.32334L5.72582 8.52878V10.5725H7.08169ZM8.11724 12.0318L6.98631 12.7798L6.99022 12.7856L8.11724 12.0318ZM8.23362 12.2058L7.10657 12.9596L7.11166 12.9671L8.23362 12.2058ZM9.16861 11.5714L8.03921 12.3217L8.04664 12.3327L9.16861 11.5714ZM9.05901 11.4064L10.1884 10.6561L9.96228 10.3158L9.58585 10.1571L9.05901 11.4064ZM7.17886 10.6127L7.70552 9.36325L4.32596 7.93867L5.96614 11.219L7.17886 10.6127ZM9.05788 11.4047L8.53122 12.6541L10.1168 10.5579L9.05788 11.4047ZM9.05562 11.4019L7.92295 12.1472L7.95749 12.1997L7.99674 12.2487L9.05562 11.4019ZM8.26017 10.281L9.31577 9.43009L9.31487 9.42898L8.26017 10.281ZM7.59918 9.59519L8.45136 8.54059L8.45076 8.5401L7.59918 9.59519ZM13.0617 9.49519L12.2383 8.41791L12.2364 8.41938L13.0617 9.49519ZM17.5394 9.54548L18.3973 8.49552L18.3968 8.49511L17.5394 9.54548ZM18.1801 10.2178L17.1196 11.0626L17.1207 11.064L18.1801 10.2178ZM18.9501 11.3138L20.113 10.6166L20.0999 10.5948L20.0861 10.5735L18.9501 11.3138ZM18.9518 11.3166L17.7889 12.0138L17.8027 12.0367L17.8173 12.0591L18.9518 11.3166ZM19.0591 11.4793L20.1832 10.7211L20.1828 10.7205L19.0591 11.4793ZM18.127 12.1081L19.251 11.3498L19.248 11.3453L18.127 12.1081ZM17.1524 12.5448L15.8371 12.8738L15.8376 12.8757L17.1524 12.5448ZM17.9033 15.2486L18.1803 16.5759L19.6249 16.2744L19.2024 14.8604L17.9033 15.2486ZM12.6662 15.2384L11.3801 14.8092L10.8891 16.2801L12.4124 16.5704L12.6662 15.2384ZM12.6668 15.2367L13.9529 15.666L13.957 15.6537L13.9609 15.6413L12.6668 15.2367ZM13.4441 12.4883L14.7584 12.8215L14.7603 12.814L13.4441 12.4883ZM12.4702 12.0516L11.3514 11.2856L11.3485 11.2898L12.4702 12.0516ZM12.4295 12.1115L13.5407 12.8884L13.5459 12.8809L13.5511 12.8733L12.4295 12.1115ZM11.5041 11.4731L10.388 10.7031L10.3832 10.7102L11.5041 11.4731ZM11.7137 11.1612L10.6103 10.3732L10.5967 10.3922L10.5838 10.4117L11.7137 11.1612ZM11.7165 11.1573L12.8199 11.9453L12.8333 11.9264L12.8461 11.9072L11.7165 11.1573ZM12.4549 10.1127L13.5116 10.9622L13.5121 10.9616L12.4549 10.1127ZM15.4039 3V1.64413V3ZM3.1278 9.72413C3.33329 9.56828 3.58276 9.44039 3.8615 9.44039V6.72865C2.74256 6.72865 1.91976 7.23689 1.48911 7.56351L3.1278 9.72413ZM3.8615 9.44039H6.68397V6.72865H3.8615V9.44039ZM6.68397 9.44039C6.97819 9.44039 7.2458 9.60086 7.456 9.77072L9.16039 7.66154C8.81129 7.37945 7.9298 6.72865 6.68397 6.72865V9.44039ZM7.45566 9.77044C7.67684 9.9493 7.89146 10.1849 8.08248 10.4222L10.1949 8.72182C9.94748 8.41451 9.59488 8.01289 9.16073 7.66182L7.45566 9.77044ZM8.08408 10.4242C8.38643 10.7984 8.67428 11.235 8.86416 11.5221L11.1261 10.0264C10.9476 9.75647 10.5903 9.21118 10.1932 8.71983L8.08408 10.4242ZM8.88434 11.5518L8.8883 11.5574L11.1099 10.0024L11.1059 9.99671L8.88434 11.5518ZM8.86659 11.5254C8.90469 11.5833 8.94913 11.6514 8.98277 11.7008L11.2233 10.1731C11.2061 10.1479 11.1827 10.112 11.1316 10.0343L8.86659 11.5254ZM8.98114 11.6984C9.00468 11.733 9.02115 11.7709 9.0309 11.8105L11.6644 11.1639C11.5804 10.8216 11.4353 10.4855 11.2249 10.1755L8.98114 11.6984ZM11.6801 11.7379C11.6871 11.7008 11.7015 11.664 11.727 11.6269L9.49371 10.0887C9.24916 10.4438 9.09067 10.8352 9.01516 11.2365L11.6801 11.7379ZM11.7251 11.6296C11.7892 11.537 11.8651 11.4229 11.9394 11.3118L9.68472 9.80507C9.60195 9.92892 9.54332 10.0171 9.49556 10.0861L11.7251 11.6296ZM11.969 11.2654L11.9752 11.2553L9.66131 9.84124L9.65509 9.85141L11.969 11.2654ZM11.9476 11.2985C12.1685 10.966 12.4248 10.5827 12.6661 10.2823L10.5522 8.5838C10.2207 8.99635 9.89734 9.48419 9.68888 9.79798L11.9476 11.2985ZM12.667 10.2812C12.8387 10.067 13.0269 9.86321 13.2258 9.71094L11.5778 7.55749C11.1315 7.89898 10.7864 8.29174 10.5513 8.58489L12.667 10.2812ZM13.2264 9.71053C13.4221 9.56062 13.656 9.44039 13.9147 9.44039V6.72865C12.8063 6.72865 11.9951 7.23777 11.5772 7.5579L13.2264 9.71053ZM13.9147 9.44039H16.6429V6.72865H13.9147V9.44039ZM16.6429 9.44039C16.9149 9.44039 17.1657 9.59102 17.3667 9.75528L19.0827 7.65552C18.7459 7.38025 17.877 6.72865 16.6429 6.72865V9.44039ZM17.367 9.75554C17.5776 9.92753 17.7823 10.1548 17.9676 10.3872L20.0874 8.69589C19.849 8.39719 19.5068 8.00189 19.0824 7.65526L17.367 9.75554ZM17.9678 10.3873C18.2585 10.7516 18.5378 11.1787 18.7176 11.455L20.9905 9.97596C20.8166 9.70876 20.471 9.1766 20.0872 8.69572L17.9678 10.3873ZM18.6769 11.3884L18.6792 11.3923L21.0334 10.0465L21.0311 10.0426L18.6769 11.3884ZM18.7714 11.5327L18.7731 11.535L20.9429 9.90842L20.9412 9.90616L18.7714 11.5327ZM18.7298 11.4738L18.7332 11.4789L20.9895 9.97468L20.9861 9.96959L18.7298 11.4738ZM18.7271 11.4696C18.7589 11.5182 18.8044 11.5886 18.836 11.6352L21.0811 10.1144C21.0652 10.0909 21.0474 10.063 20.9957 9.98397L18.7271 11.4696ZM18.8324 11.6299C18.8625 11.6747 18.8795 11.727 18.8815 11.7809L21.5913 11.6777C21.5701 11.1214 21.3947 10.582 21.0846 10.1196L18.8324 11.6299ZM18.8815 11.7809C18.8836 11.8348 18.8706 11.8882 18.844 11.9352L21.2046 13.2698C21.4786 12.7852 21.6125 12.234 21.5913 11.6777L18.8815 11.7809ZM18.844 11.9352C18.8175 11.9821 18.7784 12.0208 18.7312 12.0468L20.0398 14.4219C20.5273 14.1533 20.9306 13.7544 21.2046 13.2698L18.844 11.9352ZM18.7312 12.0468C18.6839 12.0729 18.6304 12.0852 18.5765 12.0826L18.4435 14.7911C18.9995 14.8184 19.5522 14.6906 20.0398 14.4219L18.7312 12.0468ZM17.203 13.7977C17.3688 14.3981 17.5281 14.9432 17.6433 15.3279L20.2411 14.5501C20.1303 14.1801 19.9766 13.6541 19.817 13.0759L17.203 13.7977ZM17.6429 15.3265C17.6031 15.1931 17.6764 15.0188 17.8558 14.9812L18.4105 17.6357C19.8498 17.3349 20.6361 15.8747 20.2415 14.5516L17.6429 15.3265ZM17.8556 14.9813C16.0115 15.367 14.7506 15.3601 12.7132 14.971L12.2045 17.6346C14.5511 18.0828 16.176 18.103 18.4107 17.6356L17.8556 14.9813ZM12.717 14.9717C12.7546 14.979 12.7902 14.9941 12.8215 15.0161L11.2631 17.2354C11.5441 17.4327 11.8636 17.5685 12.2007 17.6339L12.717 14.9717ZM12.8215 15.0161C12.8528 15.0381 12.8791 15.0664 12.8987 15.0993L10.5699 16.4887C10.7459 16.7836 10.9821 17.038 11.2631 17.2354L12.8215 15.0161ZM12.8987 15.0993C12.9183 15.1321 12.9307 15.1687 12.9352 15.2067L10.2421 15.5242C10.2823 15.8652 10.394 16.1939 10.5699 16.4887L12.8987 15.0993ZM12.9352 15.2067C12.9396 15.2447 12.9361 15.2832 12.9246 15.3197L10.3367 14.5098C10.2341 14.8375 10.2019 15.1832 10.2421 15.5242L12.9352 15.2067ZM12.9255 15.317C13.0441 14.9351 13.2073 14.3976 13.3745 13.8021L10.7636 13.0693C10.6054 13.633 10.4499 14.1452 10.3358 14.5124L12.9255 15.317ZM11.9825 12.0826C11.9187 12.0867 11.8553 12.0691 11.8027 12.0328L10.2609 14.2635C10.8154 14.6468 11.4829 14.8319 12.1556 14.7888L11.9825 12.0826ZM11.7997 12.0307C11.7424 11.9913 11.7015 11.9322 11.6848 11.8647L9.05228 12.5153C9.22826 13.2274 9.65936 13.8501 10.2639 14.2656L11.7997 12.0307ZM9.03404 11.9503C9.02615 11.9942 9.00954 12.0361 8.9852 12.0736L11.2582 13.5524C11.4799 13.2116 11.6312 12.8299 11.7031 12.4297L9.03404 11.9503ZM8.9852 12.0736C8.96085 12.111 8.92927 12.1431 8.8923 12.1682L10.4121 14.414C10.7488 14.1861 11.0365 13.8932 11.2582 13.5524L8.9852 12.0736ZM8.88972 12.1699C8.849 12.1976 8.80269 12.216 8.75407 12.2238L9.18292 14.9014C9.62442 14.8307 10.045 14.6637 10.4147 14.4122L8.88972 12.1699ZM8.75407 12.2238C8.70545 12.2316 8.65571 12.2286 8.60839 12.215L7.85999 14.8214C8.28975 14.9448 8.74141 14.9721 9.18292 14.9014L8.75407 12.2238ZM6.88797 13.6797L6.89136 13.708L9.58379 13.3849L9.5804 13.3566L6.88797 13.6797ZM6.89 13.6962L7.26682 17.0859L9.96197 16.7863L9.58515 13.3966L6.89 13.6962ZM7.26705 17.0879C7.27695 17.1758 7.25215 17.264 7.19793 17.3338L9.3397 18.9971C9.82761 18.3688 10.0508 17.5748 9.96174 16.7843L7.26705 17.0879ZM7.19793 17.3338C7.14372 17.4036 7.06438 17.4495 6.97684 17.4616L7.34983 20.1476C8.13776 20.0382 8.85178 19.6253 9.3397 18.9971L7.19793 17.3338ZM6.97684 17.4616C6.88929 17.4738 6.80046 17.4513 6.72927 17.3989L5.12175 19.5828C5.7624 20.0544 6.5619 20.257 7.34983 20.1476L6.97684 17.4616ZM6.72927 17.3989C6.65809 17.3465 6.61019 17.2684 6.59578 17.1812L3.92031 17.6232C4.04999 18.4081 4.4811 19.1112 5.12175 19.5828L6.72927 17.3989ZM6.59532 17.1784L6.57216 17.04L3.89761 17.4876L3.92077 17.626L6.59532 17.1784ZM3.89673 17.0453L3.87413 17.1837L6.55044 17.6207L6.57304 17.4823L3.89673 17.0453ZM3.87292 17.1912C3.8591 17.279 3.81139 17.3578 3.74005 17.4107L5.35581 19.5885C5.99785 19.1122 6.42726 18.4029 6.55164 17.6132L3.87292 17.1912ZM3.74005 17.4107C3.66871 17.4636 3.57945 17.4865 3.49147 17.4742L3.11854 20.1602C3.9104 20.2702 4.71376 20.0649 5.35581 19.5885L3.74005 17.4107ZM3.49147 17.4742C3.40349 17.462 3.32381 17.4158 3.26959 17.3454L1.12165 19.0007C1.60963 19.6339 2.32669 20.0503 3.11854 20.1602L3.49147 17.4742ZM3.26959 17.3454C3.21537 17.275 3.19093 17.1862 3.20154 17.098L0.509198 16.7742C0.413738 17.5679 0.633659 18.3674 1.12165 19.0007L3.26959 17.3454ZM3.20292 17.0861L3.49557 14.4562L0.800458 14.1563L0.507815 16.7862L3.20292 17.0861ZM3.50298 14.3559L3.53066 13.6006L0.820732 13.5013L0.79305 14.2566L3.50298 14.3559ZM1.91132 12.2211C1.84501 12.2343 1.77628 12.2273 1.71395 12.2011L0.663658 14.7012C1.22464 14.9369 1.84327 14.9994 2.44007 14.8808L1.91132 12.2211ZM1.71395 12.2011C1.65161 12.175 1.59854 12.1307 1.56154 12.0742L-0.708026 13.5583C-0.375012 14.0675 0.102679 14.4656 0.663658 14.7012L1.71395 12.2011ZM1.56154 12.0742C1.52453 12.0176 1.5053 11.9512 1.5063 11.8836L-1.20515 11.8434C-1.21416 12.4518 -1.04104 13.049 -0.708026 13.5583L1.56154 12.0742ZM1.5063 11.8836C1.5073 11.816 1.5285 11.7503 1.56716 11.6948L-0.657425 10.1441C-1.00539 10.6432 -1.19613 11.235 -1.20515 11.8434L1.5063 11.8836ZM1.57078 11.6896C1.63074 11.6027 1.70094 11.4991 1.77989 11.3816L-0.471308 9.86973C-0.547154 9.98267 -0.610274 10.0757 -0.661052 10.1493L1.57078 11.6896ZM1.77396 11.3903L1.78978 11.3672L-0.449558 9.83781L-0.465376 9.86098L1.77396 11.3903ZM1.79649 11.3573C2.02378 11.0181 2.28949 10.6246 2.53972 10.3172L0.436591 8.60537C0.0936264 9.02673 -0.240641 9.52594 -0.456262 9.84772L1.79649 11.3573ZM2.54019 10.3166C2.7206 10.0947 2.9181 9.88292 3.12696 9.72476L1.48995 7.56288C1.03331 7.90865 0.678292 8.30809 0.436123 8.60595L2.54019 10.3166ZM3.86206 7.85854C3.0934 7.85854 2.50994 8.20813 2.17305 8.46292L3.80878 10.6258C3.83226 10.608 3.85257 10.5944 3.86961 10.5842C3.88666 10.574 3.89817 10.5685 3.90411 10.566C3.91496 10.5615 3.89816 10.5703 3.86206 10.5703V7.85854ZM2.17144 8.46413C1.81855 8.73184 1.52994 9.05254 1.31416 9.31752L3.41687 11.0299C3.57282 10.8384 3.70454 10.7049 3.81038 10.6246L2.17144 8.46413ZM1.31298 9.31897C1.00859 9.69381 0.702549 10.1495 0.481808 10.4781L2.73291 11.9901C2.96751 11.6408 3.20495 11.2908 3.41806 11.0284L1.31298 9.31897ZM0.496634 10.4565L0.488724 10.4678L2.71017 12.023L2.71808 12.0117L0.496634 10.4565ZM0.473811 10.4895C0.392714 10.6103 0.324906 10.7115 0.268214 10.7932L2.4968 12.3382C2.56779 12.2358 2.64913 12.1144 2.72509 12.0013L0.473811 10.4895ZM0.295059 10.7559C0.141362 10.9623 0.0307002 11.1974 -0.0303554 11.4474L2.60395 12.0908C2.57881 12.1938 2.53325 12.2906 2.46996 12.3756L0.295059 10.7559ZM-0.0303554 11.4474C-0.0914119 11.6974 -0.101615 11.9571 -0.0603633 12.2111L2.61631 11.7764C2.6333 11.8809 2.62909 11.9879 2.60395 12.0908L-0.0303554 11.4474ZM-0.0603633 12.2111C-0.0191119 12.4651 0.072754 12.7082 0.209785 12.926L2.50507 11.482C2.5615 11.5717 2.59932 11.6718 2.61631 11.7764L-0.0603633 12.2111ZM0.209785 12.926C0.346817 13.1438 0.526215 13.3319 0.737323 13.479L2.28785 11.2543C2.37477 11.3149 2.44865 11.3923 2.50507 11.482L0.209785 12.926ZM0.737323 13.479C0.948433 13.6261 1.18696 13.7294 1.43873 13.7825L1.99903 11.1293C2.10271 11.1512 2.20092 11.1937 2.28785 11.2543L0.737323 13.479ZM1.43873 13.7825C1.6905 13.8357 1.95039 13.8377 2.20298 13.7885L1.68435 11.1268C1.78835 11.1066 1.89537 11.1074 1.99903 11.1293L1.43873 13.7825ZM2.20298 13.7885C2.45556 13.7393 2.69567 13.6398 2.90906 13.496L1.39361 11.2473C1.48147 11.1881 1.58034 11.1471 1.68435 11.1268L2.20298 13.7885ZM2.90906 13.496C3.12245 13.3522 3.30478 13.167 3.4452 12.9514L1.17284 11.4715C1.23066 11.3827 1.30574 11.3065 1.39361 11.2473L2.90906 13.496ZM3.42184 12.9861L4.52688 11.3986L2.30124 9.84934L1.19621 11.4368L3.42184 12.9861ZM2.05909 10.5744L1.92125 14.3397L4.63118 14.4389L4.76902 10.6736L2.05909 10.5744ZM1.92865 14.2395L1.63148 16.9117L4.32661 17.2114L4.62378 14.5392L1.92865 14.2395ZM1.63048 16.9209C1.57882 17.4165 1.72174 17.9128 2.02908 18.3049L4.16349 16.6322C4.29004 16.7937 4.34889 16.9981 4.32761 17.2021L1.63048 16.9209ZM2.02908 18.3049C2.33641 18.6971 2.7841 18.9545 3.27765 19.0228L3.64937 16.3366C3.8526 16.3648 4.03694 16.4708 4.16349 16.6322L2.02908 18.3049ZM3.27765 19.0228C3.77121 19.0911 4.27198 18.9649 4.67425 18.671L3.0743 16.4815C3.23993 16.3605 3.44613 16.3085 3.64937 16.3366L3.27765 19.0228ZM4.67425 18.671C5.07653 18.377 5.34885 17.9382 5.43371 17.4472L2.76158 16.9854C2.79652 16.7832 2.90866 16.6026 3.0743 16.4815L4.67425 18.671ZM5.43506 17.4393L5.99661 14.0711L3.32179 13.6251L2.76023 16.9933L5.43506 17.4393ZM4.95333 15.1717L5.53297 15.0429L4.94471 12.3957L4.36507 12.5245L4.95333 15.1717ZM4.92959 15.0394L5.50358 15.1739L6.12207 12.5336L5.54808 12.3992L4.92959 15.0394ZM4.4754 14.0767L5.03583 17.4392L7.71067 16.9934L7.15025 13.6309L4.4754 14.0767ZM5.03682 17.4451C5.121 17.9369 5.39325 18.3766 5.79593 18.6712L7.39711 16.4827C7.56292 16.604 7.67502 16.7851 7.70968 16.9876L5.03682 17.4451ZM5.79593 18.6712C6.19863 18.9658 6.70015 19.0922 7.19434 19.0236L6.82129 16.3376C7.02478 16.3093 7.23129 16.3614 7.39711 16.4827L5.79593 18.6712ZM7.19434 19.0236C7.68855 18.9549 8.13665 18.6967 8.4438 18.3035L6.30681 16.6341C6.43328 16.4722 6.61779 16.3659 6.82129 16.3376L7.19434 19.0236ZM8.4438 18.3035C8.75096 17.9103 8.89307 17.413 8.84004 16.9169L6.14365 17.2051C6.12182 17.0008 6.18034 16.796 6.30681 16.6341L8.4438 18.3035ZM8.83942 16.9112L8.4626 13.5215L5.76745 13.8211L6.14427 17.2108L8.83942 16.9112ZM8.46223 13.5182C8.45174 13.4259 8.4346 13.3344 8.41091 13.2445L5.78863 13.9353C5.77902 13.8989 5.77207 13.8618 5.76782 13.8243L8.46223 13.5182ZM8.41328 13.2537L8.3952 13.183L5.76818 13.8556L5.78626 13.9262L8.41328 13.2537ZM8.43757 13.5193V10.5725H5.72582V13.5193H8.43757ZM6.55457 11.8218L6.65231 11.863L7.70655 9.36458L7.60882 9.32334L6.55457 11.8218ZM6.04851 11.3617L6.98632 12.7797L9.24816 11.2839L8.31035 9.86585L6.04851 11.3617ZM6.99022 12.7856L7.1066 12.9596L9.36065 11.452L9.24427 11.278L6.99022 12.7856ZM7.11166 12.9671C7.3977 13.3887 7.83948 13.6793 8.33983 13.7751L8.84987 11.1118C9.0559 11.1512 9.23781 11.2709 9.35558 11.4445L7.11166 12.9671ZM8.33983 13.7751C8.84017 13.871 9.35809 13.7641 9.77964 13.478L8.25702 11.2341C8.4306 11.1163 8.64386 11.0723 8.84987 11.1118L8.33983 13.7751ZM9.77964 13.478C10.2012 13.192 10.4918 12.7502 10.5877 12.2499L7.92432 11.7398C7.96377 11.5338 8.08345 11.3519 8.25702 11.2341L9.77964 13.478ZM10.5877 12.2499C10.6835 11.7495 10.5766 11.2316 10.2906 10.8101L8.04664 12.3327C7.92887 12.1591 7.88486 11.9459 7.92432 11.7398L10.5877 12.2499ZM10.298 10.8211L10.1884 10.6561L7.92966 12.1567L8.03926 12.3217L10.298 10.8211ZM9.58585 10.1571L7.70627 9.36446L6.65259 11.8631L8.53216 12.6557L9.58585 10.1571ZM8.39216 10.0074L8.39159 10.0063L5.96614 11.219L5.9667 11.2202L8.39216 10.0074ZM6.6522 11.8621L8.53122 12.6541L9.58454 10.1553L7.70552 9.36325L6.6522 11.8621ZM10.1168 10.5579L10.1145 10.555L7.99674 12.2487L7.999 12.2516L10.1168 10.5579ZM10.1883 10.6566C10.0064 10.3802 9.6753 9.87609 9.31577 9.43009L7.20457 11.132C7.46987 11.4611 7.73312 11.8587 7.92295 12.1472L10.1883 10.6566ZM9.31487 9.42898C9.09175 9.15279 8.79715 8.82001 8.45136 8.54059L6.74701 10.6498C6.87803 10.7557 7.03427 10.9212 7.20548 11.1331L9.31487 9.42898ZM8.45076 8.5401C8.15961 8.30511 7.53395 7.85854 6.68454 7.85854V10.5703C6.62468 10.5703 6.59923 10.5539 6.61986 10.5637C6.62962 10.5683 6.64611 10.5771 6.66926 10.5924C6.6923 10.6075 6.71832 10.6266 6.74761 10.6503L8.45076 8.5401ZM6.68454 7.85854H3.86206V10.5703H6.68454V7.85854ZM13.885 10.5725C13.9068 10.5558 13.9255 10.5431 13.9409 10.5338C13.9564 10.5244 13.9661 10.5199 13.9703 10.5181C13.9775 10.515 13.9563 10.5251 13.9153 10.5251V7.81335C13.1472 7.81335 12.5674 8.16639 12.2383 8.41791L13.885 10.5725ZM13.9153 10.5251H16.6434V7.81335H13.9153V10.5251ZM16.6434 10.5251C16.5782 10.5251 16.548 10.5071 16.5648 10.5151C16.5726 10.5188 16.5873 10.5267 16.6087 10.541C16.63 10.5552 16.6543 10.5732 16.682 10.5958L18.3968 8.49511C18.1146 8.26473 17.4931 7.81335 16.6434 7.81335V10.5251ZM16.6815 10.5954C16.8064 10.6975 16.9563 10.8576 17.1196 11.0626L19.2405 9.3729C19.0231 9.09993 18.7357 8.77197 18.3973 8.49552L16.6815 10.5954ZM17.1207 11.064C17.3764 11.3841 17.6299 11.7713 17.8141 12.054L20.0861 10.5735C19.911 10.3048 19.5894 9.80957 19.2395 9.37152L17.1207 11.064ZM17.7872 12.011L17.7889 12.0138L20.1147 10.6194L20.113 10.6166L17.7872 12.011ZM17.8173 12.0591C17.8554 12.1173 17.8993 12.1845 17.9355 12.2381L20.1828 10.7205C20.1603 10.6871 20.1296 10.6402 20.0863 10.574L17.8173 12.0591ZM17.9351 12.2375C17.8174 12.063 17.7738 11.8489 17.814 11.6423L20.4759 12.1596C20.573 11.6603 20.4677 11.1428 20.1832 10.7211L17.9351 12.2375ZM17.814 11.6423C17.8541 11.4356 17.9747 11.2534 18.1492 11.1357L19.6657 13.3838C20.0874 13.0993 20.3788 12.659 20.4759 12.1596L17.814 11.6423ZM18.1492 11.1357C18.3237 11.018 18.5378 10.9744 18.7445 11.0146L18.2271 13.6765C18.7265 13.7736 19.2439 13.6683 19.6657 13.3838L18.1492 11.1357ZM18.7445 11.0146C18.9511 11.0547 19.1333 11.1753 19.251 11.3499L17.0029 12.8663C17.2874 13.288 17.7278 13.5795 18.2271 13.6765L18.7445 11.0146ZM19.248 11.3453C18.9972 10.9768 18.6248 10.7083 18.1959 10.5868L17.4569 13.1959C17.2731 13.1438 17.1134 13.0288 17.006 12.8708L19.248 11.3453ZM18.1959 10.5868C17.767 10.4653 17.3091 10.4986 16.9023 10.6809L18.0113 13.1556C17.8369 13.2337 17.6407 13.248 17.4569 13.1959L18.1959 10.5868ZM16.9023 10.6809C16.4956 10.8632 16.1659 11.1828 15.9712 11.5837L18.4103 12.7686C18.3269 12.9405 18.1856 13.0774 18.0113 13.1556L16.9023 10.6809ZM15.9712 11.5837C15.7764 11.9847 15.7289 12.4414 15.8371 12.8738L18.4678 12.2158C18.5141 12.4011 18.4938 12.5968 18.4103 12.7686L15.9712 11.5837ZM15.8376 12.8757C16.1028 13.9296 16.416 15.0071 16.6041 15.6368L19.2024 14.8604C19.0188 14.2461 18.7185 13.2118 18.4673 12.2139L15.8376 12.8757ZM17.6262 13.9213C15.9431 14.2726 14.83 14.2704 12.92 13.9065L12.4124 16.5704C14.6299 16.9928 16.1065 17.0087 18.1803 16.5759L17.6262 13.9213ZM13.9523 15.6677L13.9529 15.666L11.3806 14.8075L11.3801 14.8092L13.9523 15.6677ZM13.9609 15.6413C14.2524 14.7088 14.5183 13.7685 14.7584 12.8215L12.1298 12.1551C11.9019 13.0542 11.6494 13.9469 11.3726 14.8322L13.9609 15.6413ZM14.7603 12.814C14.8672 12.3822 14.819 11.9266 14.6242 11.5266L12.1863 12.7143C12.1028 12.5429 12.0822 12.3476 12.128 12.1625L14.7603 12.814ZM14.6242 11.5266C14.4293 11.1267 14.1002 10.8079 13.6943 10.6259L12.5848 13.1003C12.4109 13.0223 12.2698 12.8857 12.1863 12.7143L14.6242 11.5266ZM13.6943 10.6259C13.2884 10.4439 12.8314 10.4102 12.4032 10.5308L13.1381 13.1411C12.9546 13.1927 12.7588 13.1783 12.5848 13.1003L13.6943 10.6259ZM12.4032 10.5308C11.975 10.6514 11.6027 10.9185 11.3514 11.2856L13.5889 12.8176C13.4812 12.9749 13.3217 13.0894 13.1381 13.1411L12.4032 10.5308ZM11.3485 11.2898L11.3079 11.3496L13.5511 12.8733L13.5918 12.8134L11.3485 11.2898ZM11.3183 11.3345C11.4384 11.1627 11.6216 11.0454 11.828 11.0082L12.3091 13.6769C12.8076 13.587 13.2504 13.3036 13.5407 12.8884L11.3183 11.3345ZM11.828 11.0082C12.0343 10.971 12.247 11.017 12.4195 11.136L10.8797 13.3681C11.2967 13.6558 11.8105 13.7668 12.3091 13.6769L11.828 11.0082ZM12.4195 11.136C12.5921 11.2551 12.7106 11.4375 12.7491 11.6436L10.0834 12.1415C10.1764 12.6395 10.4627 13.0805 10.8797 13.3681L12.4195 11.136ZM12.7491 11.6436C12.7875 11.8497 12.7429 12.0627 12.625 12.236L10.3832 10.7102C10.0982 11.129 9.99039 11.6435 10.0834 12.1415L12.7491 11.6436ZM12.6202 12.243C12.6896 12.1423 12.7682 12.0243 12.8436 11.9107L10.5838 10.4117C10.5078 10.5264 10.4417 10.6253 10.388 10.7031L12.6202 12.243ZM12.8171 11.9492L12.8199 11.9453L10.6131 10.3693L10.6103 10.3732L12.8171 11.9492ZM12.8461 11.9072C13.0743 11.5635 13.3048 11.2195 13.5116 10.9622L11.3982 9.26313C11.0999 9.63413 10.8005 10.0855 10.5869 10.4074L12.8461 11.9072ZM13.5121 10.9616C13.6607 10.7766 13.7866 10.6479 13.8869 10.571L12.2364 8.41938C11.8904 8.68482 11.6084 9.00135 11.3977 9.26372L13.5121 10.9616ZM15.4039 8.87545C16.3629 8.87545 17.2825 8.49451 17.9606 7.81644L16.0431 5.89895C15.8736 6.06847 15.6437 6.1637 15.4039 6.1637V8.87545ZM17.9606 7.81644C18.6387 7.13838 19.0196 6.21872 19.0196 5.25979H16.3078C16.3078 5.49952 16.2126 5.72943 16.0431 5.89895L17.9606 7.81644ZM19.0196 5.25979C19.0196 4.30085 18.6387 3.3812 17.9606 2.70313L16.0431 4.62062C16.2126 4.79014 16.3078 5.02006 16.3078 5.25979H19.0196ZM17.9606 2.70313C17.2825 2.02506 16.3629 1.64413 15.4039 1.64413V4.35587C15.6437 4.35587 15.8736 4.45111 16.0431 4.62062L17.9606 2.70313ZM15.4039 1.64413C14.445 1.64413 13.5253 2.02506 12.8473 2.70313L14.7648 4.62062C14.9343 4.45111 15.1642 4.35587 15.4039 4.35587V1.64413ZM12.8473 2.70313C12.1692 3.3812 11.7883 4.30085 11.7883 5.25979H14.5C14.5 5.02006 14.5952 4.79014 14.7648 4.62062L12.8473 2.70313ZM11.7883 5.25979C11.7883 6.21872 12.1692 7.13838 12.8473 7.81644L14.7648 5.89895C14.5952 5.72943 14.5 5.49952 14.5 5.25979H11.7883ZM12.8473 7.81644C13.5253 8.49451 14.445 8.87545 15.4039 8.87545V6.1637C15.1642 6.1637 14.9343 6.06847 14.7648 5.89895L12.8473 7.81644ZM15.4039 7.74555C16.0632 7.74555 16.6955 7.48366 17.1616 7.01749L15.2441 5.1C15.2865 5.05762 15.344 5.03381 15.4039 5.03381V7.74555ZM17.1616 7.01749C17.6278 6.55132 17.8897 5.91905 17.8897 5.25979H15.1779C15.1779 5.19986 15.2018 5.14238 15.2441 5.1L17.1616 7.01749ZM17.8897 5.25979C17.8897 4.60052 17.6278 3.96826 17.1616 3.50209L15.2441 5.41958C15.2018 5.3772 15.1779 5.31972 15.1779 5.25979H17.8897ZM17.1616 3.50209C16.6955 3.03591 16.0632 2.77402 15.4039 2.77402V5.48577C15.344 5.48577 15.2865 5.46196 15.2441 5.41958L17.1616 3.50209ZM15.4039 2.77402C14.7447 2.77402 14.1124 3.03591 13.6462 3.50209L15.5637 5.41958C15.5213 5.46196 15.4639 5.48577 15.4039 5.48577V2.77402ZM13.6462 3.50209C13.1801 3.96826 12.9182 4.60052 12.9182 5.25979H15.6299C15.6299 5.31972 15.6061 5.3772 15.5637 5.41958L13.6462 3.50209ZM12.9182 5.25979C12.9182 5.91905 13.1801 6.55132 13.6462 7.01749L15.5637 5.1C15.6061 5.14237 15.6299 5.19985 15.6299 5.25979H12.9182ZM13.6462 7.01749C14.1124 7.48366 14.7447 7.74555 15.4039 7.74555V5.03381C15.4639 5.03381 15.5213 5.05762 15.5637 5.1L13.6462 7.01749Z" fill="#676767" mask="url(#path-5-inside-3_1082_3944)"/>
<path d="M13.55 18.0307C13.6517 18.04 13.7534 18.0486 13.8552 18.0565C13.8422 18.0788 13.8242 18.098 13.8024 18.1124L14.1772 18.6774L13.8024 18.1124C13.7682 18.1351 13.7269 18.1446 13.6862 18.1392L13.6813 18.1385C13.6425 18.1322 13.6071 18.1125 13.5812 18.0829C13.5676 18.0674 13.5571 18.0497 13.55 18.0307ZM16.9489 18.0508C17.0525 18.0426 17.156 18.0336 17.2595 18.0238C17.2524 18.0453 17.2411 18.0653 17.226 18.0826C17.1989 18.1135 17.1616 18.1335 17.1209 18.1389C17.0803 18.1444 17.039 18.1349 17.0048 18.1122C16.9812 18.0966 16.9621 18.0754 16.9489 18.0508Z" fill="#272727" stroke="#676767" stroke-width="1.35587"/>
</g>
<defs>
<clipPath id="clip0_1082_3944">
<rect width="20" height="20" fill="white" transform="translate(0.150391 0.5)"/>
</clipPath>
</defs>
</svg>
