<svg width="21" height="21" viewBox="0 0 21 21" fill="none" xmlns="http://www.w3.org/2000/svg">
<path d="M12.7547 12.648L12.7577 12.6498C12.8339 12.6937 12.8897 12.7661 12.9128 12.851C12.9358 12.9356 12.9246 13.0258 12.8816 13.1021C12.6837 13.446 12.3987 13.7317 12.0554 13.9304C11.7116 14.1294 11.3214 14.2341 10.9242 14.2341C10.5269 14.2341 10.1367 14.1294 9.79295 13.9304C9.44958 13.7317 9.16463 13.446 8.96676 13.1022C8.92374 13.0258 8.91251 12.9356 8.93552 12.851C8.95862 12.7661 9.01438 12.6937 9.09063 12.6498L9.09063 12.6498L9.09362 12.648C9.13146 12.6258 9.17332 12.6113 9.21677 12.6054C9.26023 12.5994 9.30443 12.6021 9.34686 12.6132C9.38928 12.6244 9.42909 12.6438 9.464 12.6703L9.76678 12.2724L9.464 12.6703C9.49847 12.6966 9.52749 12.7293 9.54944 12.7666C9.68765 13.0084 9.88724 13.2096 10.1281 13.3497C10.3698 13.4903 10.6445 13.5644 10.9242 13.5644C11.2038 13.5644 11.4785 13.4903 11.7202 13.3497C11.9611 13.2096 12.1607 13.0084 12.2989 12.7666C12.3208 12.7293 12.3498 12.6966 12.3843 12.6703C12.4192 12.6438 12.459 12.6244 12.5015 12.6132C12.5439 12.6021 12.5881 12.5994 12.6315 12.6054C12.675 12.6113 12.7169 12.6258 12.7547 12.648ZM8.92287 4.34413L8.98007 3.54807L8.23882 3.84391C6.68902 4.46246 5.40364 5.60243 4.60436 7.06722C3.80507 8.53201 3.54197 10.2298 3.86045 11.8678C4.17892 13.5058 5.05899 14.9813 6.34889 16.0399C7.6385 17.0983 9.25694 17.6736 10.9252 17.6666C12.8255 17.6663 14.648 16.9113 15.9918 15.5676C17.3358 14.2235 18.0908 12.4007 18.0908 10.5C18.0908 8.59924 17.3358 6.77637 15.9918 5.43236C14.6477 4.08835 12.8249 3.33329 10.9242 3.33329C10.5705 3.33329 10.2314 3.47377 9.98135 3.72382C9.7313 3.97387 9.59082 4.313 9.59082 4.66663C9.59082 5.02025 9.7313 5.35939 9.98135 5.60943C10.2314 5.85948 10.5705 5.99996 10.9242 5.99996C11.0126 5.99996 11.0973 6.03508 11.1599 6.09759C11.2224 6.1601 11.2575 6.24489 11.2575 6.33329C11.2575 6.4217 11.2224 6.50648 11.1599 6.56899L11.5134 6.92255L11.1599 6.569C11.0973 6.63151 11.0126 6.66663 10.9242 6.66663C10.3937 6.66663 9.88502 6.45591 9.50994 6.08084C9.13487 5.70577 8.92416 5.19706 8.92416 4.66663V4.64869L8.92287 4.63079C8.91601 4.53536 8.91601 4.43956 8.92287 4.34413ZM8.70131 8.6481C8.73794 8.70292 8.75749 8.76737 8.75749 8.83329C8.75749 8.9217 8.72237 9.00648 8.65986 9.06899L9.01341 9.42255L8.65986 9.069C8.59735 9.13151 8.51256 9.16663 8.42416 9.16663C8.35823 9.16663 8.29378 9.14708 8.23897 9.11045C8.18415 9.07382 8.14143 9.02176 8.1162 8.96086C8.09097 8.89995 8.08437 8.83292 8.09723 8.76826C8.11009 8.7036 8.14184 8.64421 8.18846 8.59759C8.23507 8.55097 8.29447 8.51923 8.35913 8.50636C8.42379 8.4935 8.49081 8.5001 8.55172 8.52533C8.61263 8.55056 8.66469 8.59329 8.70131 8.6481ZM13.239 8.55614C13.2938 8.51951 13.3582 8.49996 13.4242 8.49996C13.5126 8.49996 13.5973 8.53508 13.6599 8.59759L14.0134 8.24404L13.6599 8.59759C13.7224 8.6601 13.7575 8.74489 13.7575 8.83329C13.7575 8.89922 13.7379 8.96367 13.7013 9.01848L14.117 9.29627L13.7013 9.01849C13.6647 9.0733 13.6126 9.11602 13.5517 9.14125C13.4908 9.16648 13.4238 9.17308 13.3591 9.16022C13.2945 9.14736 13.2351 9.11561 13.1885 9.06899C13.1418 9.02238 13.1101 8.96298 13.0972 8.89832C13.0844 8.83366 13.091 8.76664 13.1162 8.70573C13.1414 8.64482 13.1842 8.59276 13.239 8.55614ZM6.57219 3.98678C7.86038 3.12604 9.37487 2.66663 10.9242 2.66663C11.9528 2.66663 12.9715 2.86924 13.9218 3.2629C14.8722 3.65656 15.7358 4.23356 16.4632 4.96096C17.1906 5.68835 17.7676 6.55189 18.1612 7.50227C18.5549 8.45266 18.7575 9.47127 18.7575 10.5C18.7575 12.0492 18.2981 13.5637 17.4373 14.8519C16.5766 16.1401 15.3532 17.1441 13.9218 17.737C12.4905 18.3299 10.9155 18.485 9.39595 18.1828C7.87643 17.8805 6.48067 17.1345 5.38515 16.039C4.28964 14.9435 3.54359 13.5477 3.24134 12.0282C2.93909 10.5086 3.09421 8.93363 3.6871 7.50227C4.27999 6.07092 5.28401 4.84752 6.57219 3.98678Z" fill="#272727" stroke="#676767"/>
</svg>
