<svg
    width="24"
    height="24"
    viewBox="0 0 24 24"
    fill="none"
    xmlns="http://www.w3.org/2000/svg"
>
<path
        d="M5 4L20 19"
        stroke="#010101"
        stroke-width="1.5"
        stroke-linecap="round"
    />
<path
        fill-rule="evenodd"
        clip-rule="evenodd"
        d="M6.03324 7.15456C5.73565 7.99097 5.58 8.945 5.58 10C5.58 15.9014 3.55815 16.2402 3.50119 16.2498C3.50024 16.2499 3.49984 16.25 3.5 16.25C3.30109 16.25 3.11032 16.329 2.96967 16.4697C2.82902 16.6103 2.75 16.8011 2.75 17C2.75 17.1989 2.82902 17.3897 2.96967 17.5303C3.11032 17.671 3.30109 17.75 3.5 17.75H8.33C8.49694 18.6007 8.95423 19.367 9.62366 19.9178C10.2931 20.4686 11.1331 20.7698 12 20.7698C12.8669 20.7698 13.7069 20.4686 14.3763 19.9178C15.0458 19.367 15.5031 18.6007 15.67 17.75H16.6287L15.1287 16.25H5.76C6.48 15.16 7.08 13.25 7.08 10C7.08 9.41583 7.13815 8.87204 7.25168 8.373L6.03324 7.15456ZM17.3847 14.2634C17.1015 13.2145 16.92 11.8372 16.92 10C16.92 6.66 15.12 4.75 12 4.75C10.7109 4.75 9.6472 5.09141 8.84264 5.72132L7.75238 4.63106C8.82462 3.73817 10.2634 3.25 12 3.25C16 3.25 18.42 5.84 18.42 10C18.42 15.89 20.44 16.25 20.53 16.25H20.51C20.7089 16.25 20.8997 16.329 21.0403 16.4697C21.181 16.6103 21.26 16.8011 21.26 17C21.26 17.1989 21.181 17.3897 21.0403 17.5303C20.9732 17.5975 20.8946 17.6506 20.8091 17.6878L17.3847 14.2634ZM10.7064 18.8357C11.0843 19.1044 11.5363 19.2491 12 19.25C12.4637 19.2491 12.9157 19.1044 13.2936 18.8357C13.6716 18.567 13.9568 18.1877 14.11 17.75H9.89C10.0432 18.1877 10.3284 18.567 10.7064 18.8357Z"
        fill="black"
    />
</svg>
