<svg width="42" height="42" viewBox="0 0 42 42" fill="none" xmlns="http://www.w3.org/2000/svg">
<rect width="42" height="42" rx="20" fill="#053654"/>
<path d="M20.8615 28.179C19.9411 28.179 19.1229 28.0213 18.407 27.706C17.6953 27.3906 17.1328 26.9517 16.7195 26.3892C16.3061 25.8267 16.0866 25.1768 16.0611 24.4396H18.4645C18.4858 24.7933 18.603 25.1023 18.8161 25.3665C19.0291 25.6264 19.3125 25.8288 19.6662 25.9737C20.0199 26.1186 20.4162 26.1911 20.8551 26.1911C21.3239 26.1911 21.7393 26.1101 22.1016 25.9482C22.4638 25.782 22.7472 25.5518 22.9517 25.2578C23.1563 24.9638 23.2564 24.625 23.2521 24.2415C23.2564 23.8452 23.1541 23.4957 22.9453 23.1932C22.7365 22.8906 22.4339 22.6541 22.0376 22.4837C21.6456 22.3132 21.1726 22.228 20.6186 22.228H19.4616V20.3999H20.6186C21.0746 20.3999 21.473 20.321 21.8139 20.1634C22.1591 20.0057 22.4297 19.7841 22.6257 19.4986C22.8217 19.2088 22.9176 18.8743 22.9134 18.495C22.9176 18.1243 22.8345 17.8026 22.6641 17.5298C22.4979 17.2528 22.2614 17.0376 21.9545 16.8842C21.652 16.7308 21.2962 16.6541 20.8871 16.6541C20.4865 16.6541 20.1158 16.7266 19.7749 16.8714C19.4339 17.0163 19.1591 17.223 18.9503 17.4915C18.7415 17.7557 18.6307 18.071 18.6179 18.4375H16.3359C16.353 17.7045 16.5639 17.0611 16.9688 16.5071C17.3778 15.9489 17.9233 15.5142 18.6051 15.2031C19.2869 14.8878 20.0518 14.7301 20.8999 14.7301C21.7734 14.7301 22.532 14.8942 23.1754 15.2223C23.8232 15.5462 24.3239 15.983 24.6776 16.5327C25.0313 17.0824 25.2081 17.6896 25.2081 18.3544C25.2124 19.0916 24.995 19.7095 24.5561 20.2081C24.1214 20.7067 23.5504 21.0327 22.843 21.1861V21.2884C23.7635 21.4162 24.4688 21.7571 24.9588 22.3111C25.4531 22.8608 25.6982 23.5447 25.6939 24.3629C25.6939 25.0959 25.4851 25.7521 25.0675 26.3317C24.6541 26.907 24.0831 27.3587 23.3544 27.6868C22.63 28.0149 21.799 28.179 20.8615 28.179Z" fill="white"/>
</svg>
