<svg width="42" height="42" viewBox="0 0 42 42" fill="none" xmlns="http://www.w3.org/2000/svg">
<rect width="42" height="42" rx="20" fill="#053654"/>
<path d="M16.1634 28V26.2869L20.7081 21.8317C21.1428 21.3928 21.505 21.0028 21.7947 20.6619C22.0845 20.321 22.3018 19.9908 22.4467 19.6712C22.5916 19.3516 22.6641 19.0107 22.6641 18.6484C22.6641 18.2351 22.5703 17.8814 22.3828 17.5874C22.1953 17.2891 21.9375 17.0589 21.6094 16.897C21.2812 16.7351 20.9084 16.6541 20.4908 16.6541C20.0604 16.6541 19.6832 16.7436 19.3594 16.9226C19.0355 17.0973 18.7841 17.3466 18.6051 17.6705C18.4304 17.9943 18.343 18.38 18.343 18.8274H16.0866C16.0866 17.9964 16.2763 17.2741 16.6555 16.6605C17.0348 16.0469 17.5568 15.5717 18.2216 15.2351C18.8906 14.8984 19.6577 14.7301 20.5227 14.7301C21.4006 14.7301 22.1719 14.8942 22.8366 15.2223C23.5014 15.5504 24.017 16 24.3835 16.571C24.7543 17.142 24.9396 17.794 24.9396 18.527C24.9396 19.017 24.8459 19.4986 24.6584 19.9716C24.4709 20.4446 24.1406 20.9687 23.6676 21.544C23.1989 22.1193 22.5405 22.8161 21.6925 23.6342L19.4361 25.929V26.0185H25.1378V28H16.1634Z" fill="white"/>
</svg>
