<svg
    width="11"
    height="17"
    viewBox="0 0 11 17"
    fill="none"
    xmlns="http://www.w3.org/2000/svg"
>
    <path
        d="M10.2066 5.30629C10.5973 4.91566 10.5973 4.28129 10.2066 3.89066C9.81602 3.50004 9.18164 3.50004 8.79102 3.89066L5.50039 7.18441L2.20664 3.89379C1.81602 3.50316 1.18164 3.50316 0.791016 3.89379C0.400391 4.28441 0.400391 4.91879 0.791016 5.30941L4.08477 8.60004L0.794141 11.8938C0.403516 12.2844 0.403516 12.9188 0.794141 13.3094C1.18477 13.7 1.81914 13.7 2.20977 13.3094L5.50039 10.0157L8.79414 13.3063C9.18477 13.6969 9.81914 13.6969 10.2098 13.3063C10.6004 12.9157 10.6004 12.2813 10.2098 11.8907L6.91602 8.60004L10.2066 5.30629Z"
        fill="#053654"
    />
</svg>
