<svg width="37" height="28" viewBox="0 0 37 28" fill="none" xmlns="http://www.w3.org/2000/svg">
<path d="M15.1805 2.99375C9.12422 2.99375 4.19297 7.90625 4.19297 13.9812C4.19297 20.0375 9.12422 24.9688 15.1805 24.9688C21.2555 24.9688 26.168 20.0375 26.168 13.9812C26.168 7.90625 21.2555 2.99375 15.1805 2.99375ZM12.6867 20.4688C10.0805 19.475 8.22422 16.9438 8.22422 13.9812C8.22422 11.0187 10.0805 8.4875 12.6867 7.475V20.4688ZM17.6742 20.4875V7.475C20.2805 8.4875 22.1367 11.0187 22.1367 13.9812C22.1367 16.9438 20.2805 19.475 17.6742 20.4875ZM33.1992 0H3.19922C1.54297 0 0.199219 1.34375 0.199219 3V25C0.199219 26.6562 1.54297 28 3.19922 28H33.1992C34.8555 28 36.1992 26.6562 36.1992 25V3C36.1992 1.34375 34.8555 0 33.1992 0ZM20.8055 26H15.1617C8.52422 26 3.04922 20.6562 3.04922 14.1125C3.04922 6.95 8.52422 2 15.1617 2H20.8055C27.368 2 33.3492 6.95 33.3492 14.1125C33.3492 20.6562 27.368 26 20.8055 26Z" fill="#053654"/>
</svg>
