<svg
            width="18"
            height="18"
            viewBox="0 0 18 18"
            fill="none"
            xmlns="http://www.w3.org/2000/svg"
          >
            <path
              d="M14.8332 2.08744H13.1665V1.25411C13.1665 1.0331 13.0787 0.821134 12.9224 0.664854C12.7661 0.508574 12.5542 0.420776 12.3332 0.420776C12.1122 0.420776 11.9002 0.508574 11.7439 0.664854C11.5876 0.821134 11.4998 1.0331 11.4998 1.25411V2.08744H6.49984V1.25411C6.49984 1.0331 6.41204 0.821134 6.25576 0.664854C6.09948 0.508574 5.88752 0.420776 5.6665 0.420776C5.44549 0.420776 5.23353 0.508574 5.07725 0.664854C4.92097 0.821134 4.83317 1.0331 4.83317 1.25411V2.08744H3.1665C2.50346 2.08744 1.86758 2.35084 1.39874 2.81968C0.929896 3.28852 0.666504 3.9244 0.666504 4.58744V14.5874C0.666504 15.2505 0.929896 15.8864 1.39874 16.3552C1.86758 16.8241 2.50346 17.0874 3.1665 17.0874H14.8332C15.4962 17.0874 16.1321 16.8241 16.6009 16.3552C17.0698 15.8864 17.3332 15.2505 17.3332 14.5874V4.58744C17.3332 3.9244 17.0698 3.28852 16.6009 2.81968C16.1321 2.35084 15.4962 2.08744 14.8332 2.08744ZM15.6665 14.5874C15.6665 14.8085 15.5787 15.0204 15.4224 15.1767C15.2661 15.333 15.0542 15.4208 14.8332 15.4208H3.1665C2.94549 15.4208 2.73353 15.333 2.57725 15.1767C2.42097 15.0204 2.33317 14.8085 2.33317 14.5874V8.75411H15.6665V14.5874ZM15.6665 7.08744H2.33317V4.58744C2.33317 4.36643 2.42097 4.15447 2.57725 3.99819C2.73353 3.84191 2.94549 3.75411 3.1665 3.75411H4.83317V4.58744C4.83317 4.80846 4.92097 5.02042 5.07725 5.1767C5.23353 5.33298 5.44549 5.42078 5.6665 5.42078C5.88752 5.42078 6.09948 5.33298 6.25576 5.1767C6.41204 5.02042 6.49984 4.80846 6.49984 4.58744V3.75411H11.4998V4.58744C11.4998 4.80846 11.5876 5.02042 11.7439 5.1767C11.9002 5.33298 12.1122 5.42078 12.3332 5.42078C12.5542 5.42078 12.7661 5.33298 12.9224 5.1767C13.0787 5.02042 13.1665 4.80846 13.1665 4.58744V3.75411H14.8332C15.0542 3.75411 15.2661 3.84191 15.4224 3.99819C15.5787 4.15447 15.6665 4.36643 15.6665 4.58744V7.08744Z"
              fill="#053654"
            />
          </svg>
