<svg width="36" height="28" viewBox="0 0 36 28" fill="none" xmlns="http://www.w3.org/2000/svg">
<path d="M31.8022 10.2563C31.8022 9.7625 31.4661 9.5 30.8489 9.5H30.5494V11.0562H30.8367C31.4661 11.0562 31.8022 10.7812 31.8022 10.2563ZM32.2667 0H2.93333C1.31389 0 0 1.34375 0 3V25C0 26.6562 1.31389 28 2.93333 28H32.2667C33.8861 28 35.2 26.6562 35.2 25V3C35.2 1.34375 33.8861 0 32.2667 0ZM29.5717 8.68125C30.9528 8.68125 32.8044 8.425 32.8044 10.2063C32.8044 10.9938 32.4011 11.5 31.6617 11.6562L33.2383 13.8062H32.0406L30.6839 11.7563H30.5494V13.8062H29.5717V8.68125ZM26.1556 8.6875H28.9239V9.5625H27.1333V10.7H28.8628V11.5625H27.1333V12.95H28.9239V13.8125H26.1556V8.6875ZM21.9572 8.6875L23.2956 12.1375L24.6522 8.6875H25.7217L23.5522 13.95H23.0267L20.8878 8.6875H21.9572ZM18.5411 8.5C20.0506 8.5 21.2667 9.75 21.2667 11.2875C21.2667 12.8313 20.0444 14.075 18.5411 14.075C17.0317 14.075 15.8156 12.825 15.8156 11.2875C15.8156 9.74375 17.0378 8.5 18.5411 8.5ZM15.5283 8.88125V10.0688C14.3 8.8125 12.6683 9.775 12.6683 11.2563C12.6683 12.8188 14.3489 13.6625 15.5283 12.4563V13.6438C13.7133 14.5375 11.66 13.2875 11.66 11.2563C11.66 9.30625 13.6828 7.94375 15.5283 8.88125ZM9.58833 13.025C10.285 13.025 10.9572 12.0688 9.38667 11.5C8.47 11.1562 8.15222 10.7875 8.15222 10.0813C8.15222 8.63125 10.0222 8.11875 11.1894 9.1875L10.6761 9.8625C10.0406 9.1375 9.15444 9.475 9.15444 10.0188C9.15444 10.2937 9.31944 10.45 9.90611 10.6625C11.0183 11.075 11.3483 11.4437 11.3483 12.2625C11.3483 14.1062 8.97722 14.6 7.88944 12.9688L8.51889 12.35C8.745 12.7938 9.12389 13.025 9.58833 13.025ZM3.38556 13.8125H1.95556V8.6875H3.38556C4.98056 8.6875 6.08056 9.75 6.08056 11.2563C6.08056 12.4125 5.27389 13.8125 3.38556 13.8125ZM7.51056 13.8125H6.53278V8.6875H7.51056V13.8125ZM33.2444 25.0625C33.2444 25.575 32.8289 26 32.3278 26H7.82222C19.4089 23.775 31.2094 17.3 33.2444 16V25.0625ZM4.52833 9.975C4.21056 9.66875 3.81944 9.5625 3.19 9.5625H2.93333V12.95H3.19C3.81944 12.95 4.22889 12.825 4.52833 12.55C4.87667 12.225 5.07222 11.75 5.07222 11.2563C5.07222 10.7625 4.87667 10.2875 4.52833 9.975Z" fill="#F77F1A"/>
</svg>
