<svg width="16" height="17" viewBox="0 0 16 17" fill="none" xmlns="http://www.w3.org/2000/svg">
<g clip-path="url(#clip0_786_1094)">
<path d="M14 7.26671C14 11.9334 8 15.9334 8 15.9334C8 15.9334 2 11.9334 2 7.26671C2 5.67541 2.63214 4.14929 3.75736 3.02407C4.88258 1.89885 6.4087 1.26671 8 1.26671C9.5913 1.26671 11.1174 1.89885 12.2426 3.02407C13.3679 4.14929 14 5.67541 14 7.26671Z" stroke="#053654" stroke-width="2" stroke-linecap="round" stroke-linejoin="round"/>
<path d="M8 9.26671C9.10457 9.26671 10 8.37128 10 7.26671C10 6.16214 9.10457 5.26671 8 5.26671C6.89543 5.26671 6 6.16214 6 7.26671C6 8.37128 6.89543 9.26671 8 9.26671Z" stroke="#053654" stroke-width="2" stroke-linecap="round" stroke-linejoin="round"/>
</g>
<defs>
<clipPath id="clip0_786_1094">
<rect width="16" height="16" fill="white" transform="translate(0 0.600037)"/>
</clipPath>
</defs>
</svg>
