<svg width="16" height="17" viewBox="0 0 16 17" fill="none" xmlns="http://www.w3.org/2000/svg">
<g clip-path="url(#clip0_821_1221)">
<path d="M7.20007 4.48007C7.24472 4.52822 7.27945 4.58469 7.30228 4.64627C7.32511 4.70784 7.33558 4.77331 7.33311 4.83893C7.33063 4.90455 7.31525 4.96904 7.28785 5.02872C7.26045 5.0884 7.22156 5.14209 7.1734 5.18674L5.23473 6.98674L7.1734 8.78674C7.22155 8.83139 7.26044 8.88508 7.28784 8.94476C7.31523 9.00444 7.33061 9.06893 7.33309 9.13455C7.33556 9.20017 7.32509 9.26563 7.30227 9.32721C7.27944 9.38878 7.24471 9.44525 7.20007 9.4934C7.15542 9.54156 7.10172 9.58044 7.04204 9.60784C6.98236 9.63524 6.91787 9.65062 6.85225 9.65309C6.78663 9.65557 6.72117 9.6451 6.6596 9.62227C6.59802 9.59945 6.54155 9.56472 6.4934 9.52007L4.16007 7.3534C4.10958 7.3066 4.0693 7.24987 4.04176 7.18678C4.01422 7.12368 4 7.05558 4 6.98674C4 6.91789 4.01422 6.84979 4.04176 6.7867C4.0693 6.7236 4.10958 6.66688 4.16007 6.62007L6.4934 4.4534C6.54155 4.40875 6.59802 4.37402 6.65959 4.35119C6.72117 4.32836 6.78663 4.31789 6.85226 4.32036C6.91788 4.32284 6.98237 4.33822 7.04205 4.36562C7.10172 4.39302 7.15542 4.43191 7.20007 4.48007ZM9.4934 5.18674C9.39615 5.09656 9.33871 4.97145 9.33371 4.83893C9.32871 4.7064 9.37656 4.57732 9.46673 4.48007C9.55691 4.38282 9.68202 4.32538 9.81454 4.32038C9.94707 4.31538 10.0762 4.36323 10.1734 4.4534L12.5067 6.62007C12.5572 6.66688 12.5975 6.7236 12.625 6.7867C12.6526 6.84979 12.6668 6.91789 12.6668 6.98674C12.6668 7.05558 12.6526 7.12368 12.625 7.18678C12.5975 7.24987 12.5572 7.3066 12.5067 7.3534L10.1734 9.52007C10.0762 9.61024 9.94707 9.65809 9.81454 9.65309C9.68202 9.64809 9.55691 9.59065 9.46673 9.4934C9.37656 9.39616 9.32871 9.26707 9.33371 9.13455C9.33871 9.00202 9.39615 8.87691 9.4934 8.78674L11.4321 6.98674L9.4934 5.18674Z" fill="#053654"/>
<path d="M0 2.29642C0 1.57345 0.586759 0.986694 1.30973 0.986694H14.407C15.13 0.986694 15.7168 1.57345 15.7168 2.29642V11.6516C15.7168 11.999 15.5788 12.3321 15.3332 12.5778C15.0875 12.8234 14.7544 12.9614 14.407 12.9614H7.15487L4.48078 15.6355C4.32814 15.7875 4.1339 15.891 3.92254 15.9328C3.71119 15.9747 3.49218 15.953 3.29312 15.8706C3.09406 15.7881 2.92386 15.6486 2.80398 15.4696C2.6841 15.2906 2.61989 15.0801 2.61946 14.8646V12.9614H1.30973C0.962368 12.9614 0.629233 12.8234 0.383611 12.5778C0.137989 12.3321 0 11.999 0 11.6516V2.29642ZM1.30973 2.10932C1.26011 2.10932 1.21252 2.12903 1.17743 2.16412C1.14234 2.19921 1.12263 2.2468 1.12263 2.29642V11.6516C1.12263 11.7549 1.20645 11.8387 1.30973 11.8387H3.18077C3.32964 11.8387 3.47242 11.8979 3.57768 12.0032C3.68295 12.1084 3.74209 12.2512 3.74209 12.4001V14.7875L6.5262 12.0034C6.57825 11.9512 6.64007 11.9098 6.70814 11.8816C6.7762 11.8533 6.84917 11.8388 6.92286 11.8387H14.407C14.4567 11.8387 14.5043 11.819 14.5393 11.7839C14.5744 11.7489 14.5941 11.7013 14.5941 11.6516V2.29642C14.5941 2.2468 14.5744 2.19921 14.5393 2.16412C14.5043 2.12903 14.4567 2.10932 14.407 2.10932H1.30973Z" fill="#053654"/>
</g>
<defs>
<clipPath id="clip0_821_1221">
<rect width="16" height="16" fill="white" transform="translate(0 0.320007)"/>
</clipPath>
</defs>
</svg>
