<svg width="16" height="17" viewBox="0 0 16 17" fill="none" xmlns="http://www.w3.org/2000/svg">
<path d="M11.475 13.4907L3.10938 5.12504C2.40937 6.10316 2 7.30316 2 8.60004C2 11.9125 4.6875 14.6 8 14.6C9.29688 14.6 10.4969 14.1907 11.475 13.4907ZM12.8906 12.075C13.5906 11.0969 14 9.89691 14 8.60004C14 5.28754 11.3125 2.60004 8 2.60004C6.70312 2.60004 5.50313 3.00941 4.525 3.70941L12.8906 12.075ZM16 8.60004C16 13.0188 12.4187 16.6 8 16.6C3.58125 16.6 0 13.0188 0 8.60004C0 4.18129 3.58125 0.600037 8 0.600037C12.4187 0.600037 16 4.18129 16 8.60004Z" fill="#053654"/>
</svg>
