<svg width="37" height="28" viewBox="0 0 37 28" fill="none" xmlns="http://www.w3.org/2000/svg">
<path d="M27.168 13.2688V11.25C29.743 11.25 29.5742 11.2625 29.5742 11.2625C30.0305 11.3437 30.4055 11.7187 30.4055 12.2625C30.4055 12.8125 30.0305 13.1688 29.5742 13.25C29.4992 13.275 29.368 13.2688 27.168 13.2688ZM29.843 14.5312C29.668 14.4875 29.6367 14.5 27.168 14.5V16.6875C29.643 16.6875 29.668 16.7 29.843 16.6562C30.3117 16.5625 30.6867 16.1562 30.6867 15.5938C30.6867 15.05 30.3117 14.625 29.843 14.5312ZM36.1992 3V25C36.1992 26.6562 34.8555 28 33.1992 28H3.19922C1.54297 28 0.199219 26.6562 0.199219 25V3C0.199219 1.34375 1.54297 0 3.19922 0H33.1992C34.8555 0 36.1992 1.34375 36.1992 3ZM11.5742 10.0188H8.01172C8.01172 14.2125 8.68047 16.875 5.77422 16.875C4.55547 16.875 3.34922 16.5188 2.19922 15.95V17.7C4.07422 18.2188 6.44922 18.2188 6.44922 18.2188C12.568 18.2188 11.5742 15.2375 11.5742 10.0188ZM22.7305 10.3C18.768 9.3 12.418 9.36875 12.418 14.0063C12.418 18.825 19.1805 18.6062 22.7305 17.7062V15.9375C19.7555 17.4813 16.0117 17.3125 16.0117 14C16.0117 10.6875 19.7492 10.525 22.7305 12.05V10.3ZM34.1992 15.9062C34.1992 14.75 33.168 14 31.8242 13.9062V13.8562C33.043 13.6875 33.718 12.8875 33.718 11.9688C33.718 10.7812 32.7367 10.0938 31.4055 10.0312C31.4055 10.0312 31.7992 10.0125 23.8867 10.0125V17.9813H31.5555C33.0742 17.9875 34.1992 17.175 34.1992 15.9062Z" fill="#CC390A"/>
</svg>
