<svg width="36" height="29" viewBox="0 0 36 29" fill="none" xmlns="http://www.w3.org/2000/svg">
<path d="M30.1812 23.6437C30.1812 24.0687 29.8938 24.375 29.4813 24.375C29.0563 24.375 28.7812 24.05 28.7812 23.6437C28.7812 23.2375 29.0563 22.9125 29.4813 22.9125C29.8938 22.9125 30.1812 23.2375 30.1812 23.6437ZM10.7563 22.9125C10.3125 22.9125 10.0562 23.2375 10.0562 23.6437C10.0562 24.05 10.3125 24.375 10.7563 24.375C11.1625 24.375 11.4375 24.0687 11.4375 23.6437C11.4312 23.2375 11.1625 22.9125 10.7563 22.9125ZM18.1 22.8937C17.7625 22.8937 17.5562 23.1125 17.5063 23.4375H18.7C18.6438 23.0812 18.425 22.8937 18.1 22.8937ZM24.8375 22.9125C24.4125 22.9125 24.1562 23.2375 24.1562 23.6437C24.1562 24.05 24.4125 24.375 24.8375 24.375C25.2625 24.375 25.5375 24.0687 25.5375 23.6437C25.5375 23.2375 25.2625 22.9125 24.8375 22.9125ZM31.4562 24.5438C31.4562 24.5625 31.475 24.575 31.475 24.6125C31.475 24.6312 31.4562 24.6437 31.4562 24.6812C31.4375 24.7 31.4375 24.7125 31.425 24.7313C31.4062 24.75 31.3938 24.7625 31.3563 24.7625C31.3375 24.7812 31.325 24.7812 31.2875 24.7812C31.2688 24.7812 31.2563 24.7812 31.2188 24.7625C31.2 24.7625 31.1875 24.7438 31.1688 24.7313C31.15 24.7125 31.1375 24.7 31.1375 24.6812C31.1188 24.65 31.1187 24.6312 31.1187 24.6125C31.1187 24.5812 31.1188 24.5625 31.1375 24.5438C31.1375 24.5125 31.1562 24.4937 31.1688 24.475C31.1875 24.4563 31.2 24.4563 31.2188 24.4438C31.25 24.425 31.2688 24.425 31.2875 24.425C31.3188 24.425 31.3375 24.425 31.3563 24.4438C31.3875 24.4625 31.4062 24.4625 31.425 24.475C31.4437 24.4875 31.4375 24.5125 31.4562 24.5438ZM31.3188 24.6313C31.35 24.6313 31.35 24.6125 31.3687 24.6125C31.3875 24.5938 31.3875 24.5812 31.3875 24.5625C31.3875 24.5438 31.3875 24.5312 31.3687 24.5125C31.35 24.5125 31.3375 24.4937 31.3 24.4937H31.2V24.7125H31.25V24.625H31.2687L31.3375 24.7125H31.3875L31.3188 24.6313ZM36 3.0625V25.0625C36 26.7188 34.6562 28.0625 33 28.0625H3C1.34375 28.0625 0 26.7188 0 25.0625V3.0625C0 1.40625 1.34375 0.0625 3 0.0625H33C34.6562 0.0625 36 1.40625 36 3.0625ZM4 11.7875C4 16.5688 7.88125 20.4438 12.6562 20.4438C14.3562 20.4438 16.025 19.9312 17.4375 19C12.8813 15.2937 12.9125 8.3 17.4375 4.59375C16.025 3.65625 14.3562 3.15 12.6562 3.15C7.88125 3.14375 4 7.025 4 11.7875ZM18 18.5875C22.4062 15.15 22.3875 8.45 18 4.99375C13.6125 8.45 13.5938 15.1562 18 18.5875ZM9.10625 23.3563C9.10625 22.8125 8.75 22.4562 8.1875 22.4375C7.9 22.4375 7.59375 22.525 7.3875 22.8438C7.2375 22.5875 6.98125 22.4375 6.625 22.4375C6.3875 22.4375 6.15 22.525 5.9625 22.775V22.5H5.45V24.7938H5.9625C5.9625 23.6125 5.80625 22.9062 6.525 22.9062C7.1625 22.9062 7.0375 23.5438 7.0375 24.7938H7.53125C7.53125 23.65 7.375 22.9062 8.09375 22.9062C8.73125 22.9062 8.60625 23.5312 8.60625 24.7938H9.11875V23.3563H9.10625ZM11.9125 22.5H11.4187V22.775C11.25 22.5688 11.0125 22.4375 10.6875 22.4375C10.0437 22.4375 9.55 22.95 9.55 23.6437C9.55 24.3438 10.0437 24.85 10.6875 24.85C11.0125 24.85 11.25 24.7313 11.4187 24.5125V24.8H11.9125V22.5ZM14.4438 24.1C14.4438 23.1625 13.0125 23.5875 13.0125 23.15C13.0125 22.7937 13.7562 22.85 14.1687 23.0812L14.375 22.675C13.7875 22.2937 12.4875 22.3 12.4875 23.1875C12.4875 24.0812 13.9187 23.7062 13.9187 24.125C13.9187 24.5187 13.075 24.4875 12.625 24.175L12.4062 24.5688C13.1062 25.0438 14.4438 24.9438 14.4438 24.1ZM16.6562 24.6812L16.5187 24.2563C16.2812 24.3875 15.7563 24.5312 15.7563 24V22.9625H16.575V22.5H15.7563V21.8H15.2437V22.5H14.7688V22.9562H15.2437V24C15.2437 25.1 16.325 24.9 16.6562 24.6812ZM17.4875 23.8438H19.2062C19.2062 22.8312 18.7437 22.4312 18.1187 22.4312C17.4562 22.4312 16.9813 22.925 16.9813 23.6375C16.9813 24.9188 18.3937 25.1313 19.0938 24.525L18.8563 24.15C18.3688 24.55 17.6312 24.5125 17.4875 23.8438ZM21.1812 22.5C20.8937 22.375 20.4563 22.3875 20.2313 22.775V22.5H19.7188V24.7938H20.2313V23.5C20.2313 22.775 20.825 22.8687 21.0312 22.975L21.1812 22.5ZM21.8438 23.6437C21.8438 22.9312 22.5688 22.7 23.1375 23.1187L23.375 22.7125C22.65 22.1437 21.3312 22.4562 21.3312 23.65C21.3312 24.8875 22.7313 25.1375 23.375 24.5875L23.1375 24.1812C22.5625 24.5875 21.8438 24.3438 21.8438 23.6437ZM26.0125 22.5H25.5V22.775C24.9813 22.0875 23.6313 22.475 23.6313 23.6437C23.6313 24.8438 25.0312 25.1875 25.5 24.5125V24.8H26.0125V22.5ZM28.1187 22.5C27.9688 22.425 27.4313 22.3188 27.1688 22.775V22.5H26.675V24.7938H27.1688V23.5C27.1688 22.8125 27.7313 22.8563 27.9688 22.975L28.1187 22.5ZM30.6375 21.5688H30.1437V22.775C29.6312 22.0938 28.275 22.4562 28.275 23.6437C28.275 24.8562 29.6812 25.1813 30.1437 24.5125V24.8H30.6375V21.5688ZM31.1125 16.875V17.1625H31.1625V16.875H31.2812V16.825H30.9937V16.875H31.1125ZM31.525 24.6125C31.525 24.5812 31.525 24.5438 31.5063 24.5125C31.4875 24.4938 31.475 24.4625 31.4562 24.4438C31.4375 24.425 31.4062 24.4125 31.3875 24.3937C31.3563 24.3937 31.3188 24.375 31.2875 24.375C31.2688 24.375 31.2375 24.3937 31.2 24.3937C31.1688 24.4125 31.15 24.425 31.1313 24.4438C31.1 24.4625 31.0812 24.4938 31.0812 24.5125C31.0625 24.5438 31.0625 24.5812 31.0625 24.6125C31.0625 24.6312 31.0625 24.6625 31.0812 24.7C31.0812 24.7188 31.1 24.75 31.1313 24.7687C31.15 24.7875 31.1625 24.8 31.2 24.8188C31.2313 24.8375 31.2688 24.8375 31.2875 24.8375C31.3188 24.8375 31.3563 24.8375 31.3875 24.8188C31.4062 24.8 31.4375 24.7875 31.4562 24.7687C31.475 24.75 31.4875 24.7188 31.5063 24.7C31.525 24.6625 31.525 24.6312 31.525 24.6125ZM31.725 16.8188H31.6375L31.5375 17.0375L31.4375 16.8188H31.35V17.1562H31.4V16.9L31.5 17.1187H31.5688L31.6562 16.9V17.1562H31.725V16.8188ZM32 11.7875C32 7.025 28.1187 3.14375 23.3438 3.14375C21.6437 3.14375 19.975 3.65625 18.5625 4.5875C23.0688 8.29375 23.1375 15.3062 18.5625 18.9937C19.975 19.9312 21.6562 20.4375 23.3438 20.4375C28.1187 20.4438 32 16.5688 32 11.7875Z" fill="#F15A09"/>
</svg>
