<svg width="24" height="24" viewBox="0 0 24 24" fill="none" xmlns="http://www.w3.org/2000/svg">
<g clip-path="url(#clip0_4_26)">
<path d="M19 0H5C2.23858 0 0 2.23858 0 5V19C0 21.7614 2.23858 24 5 24H19C21.7614 24 24 21.7614 24 19V5C24 2.23858 21.7614 0 19 0Z" fill="#053654"/>
<path d="M19.0857 10.2375C19.3435 10.1808 19.5749 10.033 19.7413 9.81865C19.9078 9.60432 19.999 9.33652 20 9.06V7.2C20 6.88174 19.8796 6.57651 19.6652 6.35147C19.4509 6.12643 19.1602 6 18.8571 6H5.14286C4.83976 6 4.54906 6.12643 4.33473 6.35147C4.12041 6.57651 4 6.88174 4 7.2V9.06C4.00096 9.33652 4.09226 9.60432 4.25868 9.81865C4.42509 10.033 4.65652 10.1808 4.91429 10.2375C5.30029 10.3216 5.64691 10.5427 5.89575 10.8638C6.1446 11.1848 6.28047 11.5861 6.28047 12C6.28047 12.4139 6.1446 12.8152 5.89575 13.1362C5.64691 13.4573 5.30029 13.6785 4.91429 13.7625C4.65652 13.8192 4.42509 13.9671 4.25868 14.1813C4.09226 14.3957 4.00096 14.6635 4 14.94V16.8C4 17.1183 4.12041 17.4235 4.33473 17.6485C4.54906 17.8736 4.83976 18 5.14286 18H18.8571C19.1602 18 19.4509 17.8736 19.6652 17.6485C19.8796 17.4235 20 17.1183 20 16.8V14.94C19.999 14.6635 19.9078 14.3957 19.7413 14.1813C19.5749 13.9671 19.3435 13.8192 19.0857 13.7625C18.6997 13.6785 18.3531 13.4573 18.1042 13.1362C17.8554 12.8152 17.7195 12.4139 17.7195 12C17.7195 11.5861 17.8554 11.1848 18.1042 10.8638C18.3531 10.5427 18.6997 10.3216 19.0857 10.2375ZM5.14286 14.94C5.78873 14.8023 6.36941 14.4344 6.7865 13.8986C7.20359 13.3628 7.43144 12.692 7.43144 12C7.43144 11.308 7.20359 10.6373 6.7865 10.1014C6.36941 9.56564 5.78873 9.19771 5.14286 9.06V7.2H9.14286V16.8H5.14286V14.94ZM18.8571 14.94V16.8H10.2857V7.2H18.8571V9.06C18.2113 9.19771 17.6306 9.56564 17.2135 10.1014C16.7964 10.6373 16.5686 11.308 16.5686 12C16.5686 12.692 16.7964 13.3628 17.2135 13.8986C17.6306 14.4344 18.2113 14.8023 18.8571 14.94Z" fill="white"/>
</g>
<defs>
<clipPath id="clip0_4_26">
<rect width="24" height="24" fill="white"/>
</clipPath>
</defs>
</svg>
