<svg width="24" height="24" viewBox="0 0 24 24" fill="none" xmlns="http://www.w3.org/2000/svg">
<g clip-path="url(#clip0_4_29)">
<path d="M19 0H5C2.23858 0 0 2.23858 0 5V19C0 21.7614 2.23858 24 5 24H19C21.7614 24 24 21.7614 24 19V5C24 2.23858 21.7614 0 19 0Z" fill="#053654"/>
<path d="M14.5789 12.5833C14.8982 12.5833 15.1623 12.481 15.3711 12.2764C15.5798 12.0718 15.6842 11.8129 15.6842 11.5C15.6842 11.1871 15.5798 10.9282 15.3711 10.7236C15.1623 10.519 14.8982 10.4167 14.5789 10.4167C14.2597 10.4167 13.9956 10.519 13.7868 10.7236C13.5781 10.9282 13.4737 11.1871 13.4737 11.5C13.4737 11.8129 13.5781 12.0718 13.7868 12.2764C13.9956 12.481 14.2597 12.5833 14.5789 12.5833ZM6.47369 18C6.06842 18 5.72137 17.8584 5.43253 17.5753C5.14369 17.2922 4.99951 16.9523 5 16.5556V6.44445C5 6.04722 5.14442 5.70706 5.43326 5.42395C5.72211 5.14083 6.06892 4.99952 6.47369 5H16.7895C17.1947 5 17.5418 5.14156 17.8306 5.42467C18.1195 5.70778 18.2637 6.04771 18.2632 6.44445V8.25H16.7895V6.44445H6.47369V16.5556H16.7895V14.75H18.2632V16.5556C18.2632 16.9528 18.1187 17.2929 17.8299 17.5761C17.5411 17.8592 17.1942 18.0005 16.7895 18H6.47369ZM12.3684 15.1111C11.9632 15.1111 11.6161 14.9696 11.3273 14.6864C11.0384 14.4033 10.8942 14.0634 10.8947 13.6667V9.33333C10.8947 8.93611 11.0392 8.59594 11.328 8.31283C11.6168 8.02972 11.9637 7.88841 12.3684 7.88889H17.5263C17.9316 7.88889 18.2786 8.03044 18.5675 8.31356C18.8563 8.59667 19.0005 8.9366 19 9.33333V13.6667C19 14.0639 18.8556 14.4041 18.5667 14.6872C18.2779 14.9703 17.9311 15.1116 17.5263 15.1111H12.3684ZM17.5263 13.6667V9.33333H12.3684V13.6667H17.5263Z" fill="white"/>
</g>
<defs>
<clipPath id="clip0_4_29">
<rect width="24" height="24" fill="white"/>
</clipPath>
</defs>
</svg>
