<svg width="25" height="25" viewBox="0 0 25 25" fill="none" xmlns="http://www.w3.org/2000/svg">
<g clip-path="url(#clip0_1002_113)">
<path d="M19.792 22.875H5.20866C4.93239 22.875 4.66744 22.7653 4.47209 22.5699C4.27674 22.3746 4.16699 22.1096 4.16699 21.8333V12.4583H1.04199L11.7993 2.67916C11.9911 2.50466 12.241 2.40796 12.5003 2.40796C12.7596 2.40796 13.0096 2.50466 13.2014 2.67916L23.9587 12.4583H20.8337V21.8333C20.8337 22.1096 20.7239 22.3746 20.5286 22.5699C20.3332 22.7653 20.0683 22.875 19.792 22.875ZM6.25033 20.7917H18.7503V10.5385L12.5003 4.85729L6.25033 10.5385V20.7917Z" fill="#053654"/>
</g>
<defs>
<clipPath id="clip0_1002_113">
<rect width="25" height="25" fill="white"/>
</clipPath>
</defs>
</svg>
