<svg width="25" height="25" viewBox="0 0 25 25" fill="none" xmlns="http://www.w3.org/2000/svg">
<g clip-path="url(#clip0_1002_121)">
<path d="M10.5602 20.7115C10.5602 21.0158 10.4692 21.3133 10.2987 21.5663C10.1282 21.8193 9.88587 22.0164 9.60233 22.1329C9.3188 22.2493 9.0068 22.2798 8.7058 22.2204C8.4048 22.1611 8.12831 22.0146 7.9113 21.7994C7.69429 21.5842 7.54651 21.3101 7.48663 21.0117C7.42676 20.7132 7.45749 20.4039 7.57493 20.1228C7.69238 19.8417 7.89127 19.6014 8.14644 19.4324C8.40162 19.2633 8.70162 19.1731 9.00852 19.1731C9.42006 19.1731 9.81474 19.3352 10.1057 19.6237C10.3967 19.9122 10.5602 20.3035 10.5602 20.7115ZM19.0946 19.1731C18.7877 19.1731 18.4877 19.2633 18.2325 19.4324C17.9773 19.6014 17.7785 19.8417 17.661 20.1228C17.5436 20.4039 17.5128 20.7132 17.5727 21.0117C17.6326 21.3101 17.7804 21.5842 17.9974 21.7994C18.2144 22.0146 18.4909 22.1611 18.7919 22.2204C19.0929 22.2798 19.4049 22.2493 19.6884 22.1329C19.972 22.0164 20.2143 21.8193 20.3848 21.5663C20.5553 21.3133 20.6463 21.0158 20.6463 20.7115C20.6463 20.3035 20.4828 19.9122 20.1918 19.6237C19.9008 19.3352 19.5061 19.1731 19.0946 19.1731ZM23.7158 7.09135L20.9489 16.0058C20.804 16.4783 20.5093 16.892 20.1085 17.1854C19.7078 17.4788 19.2223 17.6363 18.7241 17.6346H9.40324C8.89794 17.6327 8.40685 17.4686 8.00351 17.1668C7.60017 16.865 7.30629 16.4418 7.16587 15.9606L3.65708 3.78846H2.02585C1.82008 3.78846 1.62274 3.70742 1.47724 3.56316C1.33174 3.4189 1.25 3.22324 1.25 3.01923C1.25 2.81522 1.33174 2.61956 1.47724 2.4753C1.62274 2.33104 1.82008 2.25 2.02585 2.25H3.65708C3.994 2.25111 4.3215 2.36037 4.59056 2.56144C4.85962 2.76251 5.05576 3.04456 5.14963 3.36538L5.93615 6.09615H22.9739C23.0953 6.09611 23.215 6.12432 23.3234 6.17851C23.4318 6.2327 23.5259 6.31136 23.5981 6.40816C23.6702 6.50496 23.7185 6.61721 23.7389 6.73587C23.7594 6.85452 23.7514 6.97628 23.7158 7.09135ZM21.9236 7.63462H6.37935L8.65745 15.5385C8.7038 15.6991 8.80165 15.8404 8.9362 15.9411C9.07076 16.0417 9.2347 16.0961 9.40324 16.0962H18.7241C18.8901 16.0962 19.0518 16.0435 19.1853 15.9457C19.3189 15.8479 19.4173 15.7102 19.466 15.5529L21.9236 7.63462Z" fill="#053654"/>
</g>
<defs>
<clipPath id="clip0_1002_121">
<rect width="25" height="25" fill="white"/>
</clipPath>
</defs>
</svg>
