<svg width="25" height="25" viewBox="0 0 25 25" fill="none" xmlns="http://www.w3.org/2000/svg">
<g clip-path="url(#clip0_1002_114)">
<path d="M7.08333 2.25H16.4583C17.0109 2.25 17.5408 2.46949 17.9315 2.86019C18.3222 3.25089 18.5417 3.7808 18.5417 4.33333V6.41667H16.4583V4.33333H7.08333V21H16.4583V18.9167H18.5417V21C18.5417 21.5525 18.3222 22.0824 17.9315 22.4731C17.5408 22.8638 17.0109 23.0833 16.4583 23.0833H7.08333C6.5308 23.0833 6.00089 22.8638 5.61019 22.4731C5.21949 22.0824 5 21.5525 5 21V4.33333C5 3.7808 5.21949 3.25089 5.61019 2.86019C6.00089 2.46949 6.5308 2.25 7.08333 2.25Z" fill="#053654"/>
<path d="M17.5944 16.4069L19.0632 17.8757L24.2715 12.6673L19.0632 7.45898L17.5944 8.92773L20.2819 11.6257H10.209V13.709H20.2819L17.5944 16.4069Z" fill="#053654"/>
</g>
<defs>
<clipPath id="clip0_1002_114">
<rect width="25" height="25" fill="white"/>
</clipPath>
</defs>
</svg>
