<svg width="20" height="20" viewBox="0 0 20 20" fill="none" xmlns="http://www.w3.org/2000/svg">
<path d="M4.99992 1.66675H12.4999C12.9419 1.66675 13.3659 1.84234 13.6784 2.1549C13.991 2.46746 14.1666 2.89139 14.1666 3.33341V5.00008H12.4999V3.33341H4.99992V16.6667H12.4999V15.0001H14.1666V16.6667C14.1666 17.1088 13.991 17.5327 13.6784 17.8453C13.3659 18.1578 12.9419 18.3334 12.4999 18.3334H4.99992C4.55789 18.3334 4.13397 18.1578 3.82141 17.8453C3.50885 17.5327 3.33325 17.1088 3.33325 16.6667V3.33341C3.33325 2.89139 3.50885 2.46746 3.82141 2.1549C4.13397 1.84234 4.55789 1.66675 4.99992 1.66675Z" fill="#053654"/>
<path d="M13.4083 12.9916L14.5833 14.1666L18.75 9.99992L14.5833 5.83325L13.4083 7.00825L15.5583 9.16659H7.5V10.8333H15.5583L13.4083 12.9916Z" fill="#053654"/>
</svg>
