<svg width="24" height="24" viewBox="0 0 24 24" fill="none" xmlns="http://www.w3.org/2000/svg">
<g clip-path="url(#clip0_4_35)">
<path d="M19 0H5C2.23858 0 0 2.23858 0 5V19C0 21.7614 2.23858 24 5 24H19C21.7614 24 24 21.7614 24 19V5C24 2.23858 21.7614 0 19 0Z" fill="#053654"/>
<path d="M19 7H5.00001C4.73478 7 4.48044 7.10536 4.2929 7.2929C4.10536 7.48044 4 7.73479 4 8.00001V16C4 16.2652 4.10536 16.5196 4.2929 16.7071C4.48044 16.8946 4.73478 17 5.00001 17H19C19.2652 17 19.5196 16.8946 19.7071 16.7071C19.8947 16.5196 20 16.2652 20 16V8.00001C20 7.73479 19.8947 7.48044 19.7071 7.2929C19.5196 7.10536 19.2652 7 19 7ZM19 10C18.4882 9.95852 18.0087 9.73309 17.6502 9.36542C17.2917 8.99775 17.0785 8.51272 17.05 8.00001H19V10ZM19 10.81V13.225C18.2801 13.2682 17.6013 13.5751 17.0931 14.0869C16.5849 14.5987 16.2831 15.2797 16.245 16H7.74501C7.70841 15.2805 7.40846 14.5996 6.90226 14.0869C6.39607 13.5743 5.719 13.2658 5.00001 13.22V10.8C5.72405 10.7563 6.40624 10.4459 6.91498 9.92884C7.42371 9.41179 7.72297 8.72467 7.75501 8.00001H16.255C16.2868 8.72305 16.5847 9.40884 17.0913 9.92565C17.598 10.4425 18.2778 10.7539 19 10.8V10.81ZM6.95001 8.00001C6.92148 8.51272 6.70826 8.99775 6.34979 9.36542C5.99131 9.73309 5.51183 9.95852 5.00001 10V8.00001H6.95001ZM5.00001 14.03C5.50701 14.0707 5.98261 14.2918 6.34043 14.6533C6.69824 15.0148 6.91454 15.4927 6.95001 16H5.00001V14.03ZM17.05 16C17.0855 15.4927 17.3018 15.0148 17.6596 14.6533C18.0174 14.2918 18.493 14.0707 19 14.03V16H17.05Z" fill="white"/>
<path d="M12.0001 8.42493C10.2651 8.42493 8.8501 10.0299 8.8501 11.9999C8.8501 13.9699 10.2651 15.5749 12.0001 15.5749C13.7351 15.5749 15.1501 13.9699 15.1501 11.9999C15.1501 10.0299 13.7351 8.42493 12.0001 8.42493ZM12.0001 14.77C10.7051 14.77 9.65009 13.525 9.65009 11.9949C9.65009 10.4649 10.7051 9.21993 12.0001 9.21993C13.2951 9.21993 14.3501 10.4649 14.3501 11.9949C14.3501 13.525 13.2951 14.7749 12.0001 14.7749V14.77Z" fill="white"/>
</g>
<defs>
<clipPath id="clip0_4_35">
<rect width="24" height="24" fill="white"/>
</clipPath>
</defs>
</svg>
