<svg width="24" height="24" viewBox="0 0 24 24" fill="none" xmlns="http://www.w3.org/2000/svg">
<g clip-path="url(#clip0_4_32)">
<path d="M19 0H5C2.23858 0 0 2.23858 0 5V19C0 21.7614 2.23858 24 5 24H19C21.7614 24 24 21.7614 24 19V5C24 2.23858 21.7614 0 19 0Z" fill="#053654"/>
<path d="M18.4091 4H8.36364C7.73736 4.0019 7.1373 4.24565 6.69444 4.67801C6.2516 5.11038 6.00195 5.69624 6 6.30769V18.4231C6 18.5761 6.06226 18.7228 6.17307 18.831C6.28389 18.9392 6.43419 19 6.59091 19H17.2273C17.384 19 17.5343 18.9392 17.6451 18.831C17.7559 18.7228 17.8182 18.5761 17.8182 18.4231C17.8182 18.2701 17.7559 18.1233 17.6451 18.0152C17.5343 17.9069 17.384 17.8462 17.2273 17.8462H7.18182C7.18182 17.5402 7.30633 17.2466 7.52796 17.0302C7.7496 16.8138 8.0502 16.6923 8.36364 16.6923H18.4091C18.5658 16.6923 18.7161 16.6315 18.8269 16.5233C18.9378 16.4152 19 16.2684 19 16.1154V4.57692C19 4.42392 18.9378 4.27717 18.8269 4.16898C18.7161 4.06078 18.5658 4 18.4091 4ZM11.9091 5.15385H15.4545V10.3462L14.0364 9.30769C13.9336 9.23388 13.8094 9.19408 13.6818 9.19408C13.5543 9.19408 13.43 9.23388 13.3273 9.30769L11.9091 10.3462V5.15385ZM17.8182 15.5385H8.36364C7.94874 15.5394 7.54131 15.6463 7.18182 15.8485V6.30769C7.18182 6.00168 7.30633 5.70818 7.52796 5.4918C7.7496 5.27542 8.0502 5.15385 8.36364 5.15385H10.7273V11.5C10.7273 11.6072 10.7578 11.7122 10.8155 11.8033C10.8732 11.8945 10.9558 11.9681 11.0539 12.016C11.1521 12.0639 11.2619 12.0842 11.3713 12.0746C11.4806 12.065 11.585 12.0258 11.6727 11.9615L13.6818 10.4904L15.6909 11.9615C15.7924 12.0379 15.9173 12.0785 16.0455 12.0769C16.1371 12.075 16.2275 12.0554 16.3114 12.0192C16.4087 11.9695 16.4903 11.895 16.5475 11.8035C16.6048 11.7121 16.6355 11.6072 16.6364 11.5V5.15385H17.8182V15.5385Z" fill="white"/>
</g>
<defs>
<clipPath id="clip0_4_32">
<rect width="24" height="24" fill="white"/>
</clipPath>
</defs>
</svg>
