<svg width="20" height="20" viewBox="0 0 20 20" fill="none" xmlns="http://www.w3.org/2000/svg">
<path d="M9.99967 3.33337C10.8837 3.33337 11.7316 3.68456 12.3567 4.30968C12.9818 4.93481 13.333 5.78265 13.333 6.66671C13.333 7.55076 12.9818 8.39861 12.3567 9.02373C11.7316 9.64885 10.8837 10 9.99967 10C9.11562 10 8.26777 9.64885 7.64265 9.02373C7.01753 8.39861 6.66634 7.55076 6.66634 6.66671C6.66634 5.78265 7.01753 4.93481 7.64265 4.30968C8.26777 3.68456 9.11562 3.33337 9.99967 3.33337ZM9.99967 5.00004C9.55765 5.00004 9.13372 5.17564 8.82116 5.4882C8.5086 5.80076 8.33301 6.22468 8.33301 6.66671C8.33301 7.10873 8.5086 7.53266 8.82116 7.84522C9.13372 8.15778 9.55765 8.33337 9.99967 8.33337C10.4417 8.33337 10.8656 8.15778 11.1782 7.84522C11.4907 7.53266 11.6663 7.10873 11.6663 6.66671C11.6663 6.22468 11.4907 5.80076 11.1782 5.4882C10.8656 5.17564 10.4417 5.00004 9.99967 5.00004ZM9.99967 10.8334C12.2247 10.8334 16.6663 11.9417 16.6663 14.1667V16.6667H3.33301V14.1667C3.33301 11.9417 7.77467 10.8334 9.99967 10.8334ZM9.99967 12.4167C7.52467 12.4167 4.91634 13.6334 4.91634 14.1667V15.0834H15.083V14.1667C15.083 13.6334 12.4747 12.4167 9.99967 12.4167Z" fill="#053654"/>
</svg>
