<svg width="25" height="25" viewBox="0 0 25 25" fill="none" xmlns="http://www.w3.org/2000/svg">
<g clip-path="url(#clip0_1002_117)">
<path d="M12.4 2C13.7791 2 15.1018 2.54786 16.077 3.52304C17.0521 4.49823 17.6 5.82087 17.6 7.2C17.6 8.57913 17.0521 9.90177 16.077 10.877C15.1018 11.8521 13.7791 12.4 12.4 12.4C11.0209 12.4 9.69823 11.8521 8.72304 10.877C7.74786 9.90177 7.2 8.57913 7.2 7.2C7.2 5.82087 7.74786 4.49823 8.72304 3.52304C9.69823 2.54786 11.0209 2 12.4 2ZM12.4 4.6C11.7104 4.6 11.0491 4.87393 10.5615 5.36152C10.0739 5.84912 9.8 6.51044 9.8 7.2C9.8 7.88956 10.0739 8.55088 10.5615 9.03848C11.0491 9.52607 11.7104 9.8 12.4 9.8C13.0896 9.8 13.7509 9.52607 14.2385 9.03848C14.7261 8.55088 15 7.88956 15 7.2C15 6.51044 14.7261 5.84912 14.2385 5.36152C13.7509 4.87393 13.0896 4.6 12.4 4.6ZM12.4 13.7C15.871 13.7 22.8 15.429 22.8 18.9V22.8H2V18.9C2 15.429 8.929 13.7 12.4 13.7ZM12.4 16.17C8.539 16.17 4.47 18.068 4.47 18.9V20.33H20.33V18.9C20.33 18.068 16.261 16.17 12.4 16.17Z" fill="#053654"/>
</g>
<defs>
<clipPath id="clip0_1002_117">
<rect width="25" height="25" fill="white"/>
</clipPath>
</defs>
</svg>
