<svg width="24" height="24" viewBox="0 0 24 24" fill="none" xmlns="http://www.w3.org/2000/svg">
<g clip-path="url(#clip0_4_2)">
<path d="M19 0H5C2.23858 0 0 2.23858 0 5V19C0 21.7614 2.23858 24 5 24H19C21.7614 24 24 21.7614 24 19V5C24 2.23858 21.7614 0 19 0Z" fill="#053654"/>
<path d="M7.5 18C8.325 18 9 17.325 9 16.5V11.25C9 10.425 8.325 9.75 7.5 9.75C6.675 9.75 6 10.425 6 11.25V16.5C6 17.325 6.675 18 7.5 18ZM15 14.25V16.5C15 17.325 15.675 18 16.5 18C17.325 18 18 17.325 18 16.5V14.25C18 13.425 17.325 12.75 16.5 12.75C15.675 12.75 15 13.425 15 14.25ZM12 18C12.825 18 13.5 17.325 13.5 16.5V7.5C13.5 6.675 12.825 6 12 6C11.175 6 10.5 6.675 10.5 7.5V16.5C10.5 17.325 11.175 18 12 18Z" fill="white"/>
</g>
<defs>
<clipPath id="clip0_4_2">
<rect width="24" height="24" fill="white"/>
</clipPath>
</defs>
</svg>
