<svg width="20" height="20" viewBox="0 0 20 20" fill="none" xmlns="http://www.w3.org/2000/svg">
<rect x="0.5" width="19" height="20" rx="9.5" fill="#053654" fill-opacity="0.2"/>
<path d="M8.76705 11.4347V11.3239C8.76989 10.8097 8.81818 10.4006 8.91193 10.0966C9.00852 9.79261 9.14489 9.5483 9.32102 9.36364C9.49716 9.17614 9.71165 9.00426 9.96449 8.84801C10.1378 8.74006 10.2926 8.62216 10.429 8.49432C10.5682 8.36364 10.6776 8.21875 10.7571 8.05966C10.8366 7.89773 10.8764 7.71733 10.8764 7.51847C10.8764 7.29403 10.8239 7.09943 10.7188 6.93466C10.6136 6.76989 10.4716 6.64205 10.2926 6.55114C10.1165 6.46023 9.91903 6.41477 9.70028 6.41477C9.49858 6.41477 9.30682 6.45881 9.125 6.54688C8.94602 6.6321 8.79688 6.76278 8.67756 6.93892C8.56108 7.11222 8.49574 7.33239 8.48153 7.59943H6.96449C6.97869 7.05966 7.10938 6.60795 7.35653 6.24432C7.60653 5.88068 7.93608 5.60795 8.34517 5.42614C8.7571 5.24432 9.21165 5.15341 9.70881 5.15341C10.2514 5.15341 10.7287 5.24858 11.1406 5.43892C11.5554 5.62926 11.8778 5.90057 12.108 6.25284C12.3409 6.60227 12.4574 7.01705 12.4574 7.49716C12.4574 7.82102 12.4048 8.1108 12.2997 8.36648C12.1974 8.62216 12.0511 8.84943 11.8608 9.0483C11.6705 9.24716 11.4446 9.42472 11.1832 9.58097C10.9531 9.72301 10.7642 9.87074 10.6165 10.0241C10.4716 10.1776 10.3636 10.358 10.2926 10.5653C10.2244 10.7699 10.1889 11.0227 10.1861 11.3239V11.4347H8.76705ZM9.50852 14.0938C9.25284 14.0938 9.03267 14.0028 8.84801 13.821C8.66335 13.6392 8.57102 13.4176 8.57102 13.1562C8.57102 12.9006 8.66335 12.6818 8.84801 12.5C9.03267 12.3182 9.25284 12.2273 9.50852 12.2273C9.76136 12.2273 9.98011 12.3182 10.1648 12.5C10.3523 12.6818 10.446 12.9006 10.446 13.1562C10.446 13.3295 10.402 13.4872 10.3139 13.6293C10.2287 13.7713 10.1151 13.8849 9.97301 13.9702C9.83381 14.0526 9.67898 14.0938 9.50852 14.0938Z" fill="#053654"/>
</svg>
