<svg width="16" height="19" viewBox="0 0 16 19" fill="none" xmlns="http://www.w3.org/2000/svg">
<path d="M8.66732 12.4999C8.66732 13.4249 7.92565 14.1666 7.00065 14.1666C6.55862 14.1666 6.1347 13.991 5.82214 13.6784C5.50958 13.3659 5.33398 12.9419 5.33398 12.4999C5.33398 11.5749 6.07565 10.8333 7.00065 10.8333C7.44268 10.8333 7.8666 11.0088 8.17916 11.3214C8.49172 11.634 8.66732 12.0579 8.66732 12.4999ZM7.90898 16.6666C8.00899 17.2666 8.21732 17.8249 8.50899 18.3333H2.00065C1.55862 18.3333 1.1347 18.1577 0.82214 17.8451C0.509579 17.5325 0.333984 17.1086 0.333984 16.6666V8.33325C0.333984 7.40825 1.07565 6.66658 2.00065 6.66658H2.83398V4.99992C2.83398 2.69992 4.70065 0.833252 7.00065 0.833252C9.30065 0.833252 11.1673 2.69992 11.1673 4.99992V6.66658H12.0007C12.4427 6.66658 12.8666 6.84218 13.1792 7.15474C13.4917 7.4673 13.6673 7.89122 13.6673 8.33325V10.9083C13.3923 10.8666 13.1173 10.8333 12.834 10.8333C12.5507 10.8333 12.2757 10.8666 12.0007 10.9083V8.33325H2.00065V16.6666H7.90898ZM4.50065 6.66658H9.50065V4.99992C9.50065 3.61659 8.38398 2.49992 7.00065 2.49992C5.61732 2.49992 4.50065 3.61659 4.50065 4.99992V6.66658ZM14.784 13.1999L11.7923 16.1916L10.4673 14.8666L9.50065 15.8333L11.7923 18.3333L15.7507 14.3749L14.784 13.1999Z" fill="white"/>
</svg>
