<svg width="32" height="32" viewBox="0 0 32 32" fill="none" xmlns="http://www.w3.org/2000/svg">
<path d="M25.3332 28.0001L27.5932 21.7834C27.705 21.4761 27.7 21.1384 27.579 20.8345C27.4581 20.5307 27.2297 20.2819 26.9372 20.1354L16.5959 14.9648C16.4108 14.8723 16.2068 14.8242 15.9999 14.8242C15.793 14.8242 15.589 14.8723 15.4039 14.9648L5.06257 20.1354C4.77002 20.2818 4.54147 20.5305 4.42039 20.8344C4.29931 21.1383 4.29416 21.476 4.40591 21.7834L6.66657 28.0001" stroke="#053654" stroke-width="2" stroke-linejoin="round"/>
<path d="M19.3335 9.33341V4.00008C19.3335 3.64646 19.193 3.30732 18.943 3.05727C18.6929 2.80722 18.3538 2.66675 18.0002 2.66675H14.0002C13.6465 2.66675 13.3074 2.80722 13.0574 3.05727C12.8073 3.30732 12.6668 3.64646 12.6668 4.00008V9.33341M23.3335 9.33341H8.66683C8.31321 9.33341 7.97407 9.47389 7.72402 9.72394C7.47397 9.97399 7.3335 10.3131 7.3335 10.6667V18.6667L15.4415 14.9247C15.6167 14.8439 15.8073 14.8021 16.0002 14.8021C16.1931 14.8021 16.3837 14.8439 16.5588 14.9247L24.6668 18.6667V10.6667C24.6668 10.3131 24.5264 9.97399 24.2763 9.72394C24.0263 9.47389 23.6871 9.33341 23.3335 9.33341Z" stroke="#053654" stroke-width="2" stroke-linecap="round" stroke-linejoin="round"/>
<path d="M16.0005 21.3334V26.6668" stroke="#053654" stroke-width="2" stroke-linecap="round"/>
<path d="M2.66699 29.3334C5.33366 29.3334 5.33366 28.0001 7.33366 28.0001C9.33366 28.0001 9.33366 29.3334 11.3337 29.3334C13.3337 29.3334 13.667 28.0001 16.0003 28.0001C18.3337 28.0001 18.667 29.3334 20.667 29.3334C22.667 29.3334 22.667 28.0001 24.667 28.0001C26.667 28.0001 26.667 29.3334 29.3337 29.3334" stroke="#053654" stroke-width="2" stroke-linecap="round" stroke-linejoin="round"/>
</svg>
