<svg width="33" height="32" viewBox="0 0 33 32" fill="none" xmlns="http://www.w3.org/2000/svg">
<path d="M18.7096 15.9999C18.7096 17.3127 17.6455 18.3769 16.3328 18.3769C15.0201 18.3769 13.9559 17.3127 13.9559 15.9999C13.9559 14.6872 15.0201 13.623 16.3328 13.623C17.6455 13.623 18.7096 14.6872 18.7096 15.9999Z" stroke="#053654" stroke-width="0.811225"/>
<path d="M16.3335 13.2174V0" stroke="#053654"/>
<path d="M16.3335 32V18.7827" stroke="#053654"/>
<path d="M32.3335 15.9999H19.1167" stroke="#053654"/>
<path d="M13.5503 15.9999H0.333496" stroke="#053654"/>
<path d="M14.3667 14.0324L5.021 4.68634" stroke="#053654"/>
<path d="M27.6489 27.3137L18.3032 17.9676" stroke="#053654"/>
<path d="M27.6489 4.68633L18.3032 14.0324" stroke="#053654"/>
<path d="M14.3667 17.9676L5.021 27.3137" stroke="#053654"/>
<mask id="path-10-inside-1_744_7727" fill="white">
<path fill-rule="evenodd" clip-rule="evenodd" d="M16.3342 26.4348C22.0969 26.4348 26.7685 21.763 26.7685 16.0001C26.7685 10.2371 22.0969 5.56531 16.3342 5.56531C10.5715 5.56531 5.8999 10.2371 5.8999 16.0001C5.8999 21.763 10.5715 26.4348 16.3342 26.4348ZM16.3347 23.6524C20.5607 23.6524 23.9866 20.2264 23.9866 16.0002C23.9866 11.7741 20.5607 8.34809 16.3347 8.34809C12.1088 8.34809 8.68291 11.7741 8.68291 16.0002C8.68291 20.2264 12.1088 23.6524 16.3347 23.6524Z"/>
</mask>
<path fill-rule="evenodd" clip-rule="evenodd" d="M16.3342 26.4348C22.0969 26.4348 26.7685 21.763 26.7685 16.0001C26.7685 10.2371 22.0969 5.56531 16.3342 5.56531C10.5715 5.56531 5.8999 10.2371 5.8999 16.0001C5.8999 21.763 10.5715 26.4348 16.3342 26.4348ZM16.3347 23.6524C20.5607 23.6524 23.9866 20.2264 23.9866 16.0002C23.9866 11.7741 20.5607 8.34809 16.3347 8.34809C12.1088 8.34809 8.68291 11.7741 8.68291 16.0002C8.68291 20.2264 12.1088 23.6524 16.3347 23.6524Z" fill="#F9F9F9"/>
<path d="M24.7685 16.0001C24.7685 20.6585 20.9923 24.4348 16.3342 24.4348V28.4348C23.2016 28.4348 28.7685 22.8675 28.7685 16.0001H24.7685ZM16.3342 7.56531C20.9923 7.56531 24.7685 11.3416 24.7685 16.0001H28.7685C28.7685 9.13262 23.2016 3.56531 16.3342 3.56531V7.56531ZM7.8999 16.0001C7.8999 11.3416 11.6762 7.56531 16.3342 7.56531V3.56531C9.46686 3.56531 3.8999 9.13262 3.8999 16.0001H7.8999ZM16.3342 24.4348C11.6762 24.4348 7.8999 20.6585 7.8999 16.0001H3.8999C3.8999 22.8675 9.46686 28.4348 16.3342 28.4348V24.4348ZM21.9866 16.0002C21.9866 19.1219 19.4561 21.6524 16.3347 21.6524V25.6524C21.6654 25.6524 25.9866 21.3309 25.9866 16.0002H21.9866ZM16.3347 10.3481C19.4561 10.3481 21.9866 12.8786 21.9866 16.0002H25.9866C25.9866 10.6696 21.6654 6.34809 16.3347 6.34809V10.3481ZM10.6829 16.0002C10.6829 12.8786 13.2134 10.3481 16.3347 10.3481V6.34809C11.0041 6.34809 6.68291 10.6696 6.68291 16.0002H10.6829ZM16.3347 21.6524C13.2134 21.6524 10.6829 19.1219 10.6829 16.0002H6.68291C6.68291 21.3309 11.0041 25.6524 16.3347 25.6524V21.6524Z" fill="#053654" mask="url(#path-10-inside-1_744_7727)"/>
</svg>
