<svg width="24" height="24" viewBox="0 0 24 24" fill="none" xmlns="http://www.w3.org/2000/svg">
<path d="M6 19.0005V19.5255C6 19.9422 5.85834 20.2922 5.575 20.5755C5.29167 20.8588 4.93334 21.0005 4.5 21.0005C4.08334 21.0005 3.729 20.8545 3.437 20.5625C3.145 20.2705 2.99934 19.9165 3 19.5005V12.0005L5.1 6.00049C5.2 5.70049 5.379 5.45882 5.637 5.27549C5.895 5.09216 6.18267 5.00049 6.5 5.00049H17.5C17.8167 5.00049 18.1043 5.09216 18.363 5.27549C18.6217 5.45882 18.8007 5.70049 18.9 6.00049L21 12.0005V19.5255C21 19.9422 20.8583 20.2922 20.575 20.5755C20.2917 20.8588 19.9333 21.0005 19.5 21.0005C19.0833 21.0005 18.7293 20.8545 18.438 20.5625C18.1467 20.2705 18.0007 19.9165 18 19.5005V19.0005H6ZM5.8 10.0005H18.2L17.15 7.00049H6.85L5.8 10.0005ZM7.5 16.0005C7.91667 16.0005 8.271 15.8545 8.563 15.5625C8.855 15.2705 9.00067 14.9165 9 14.5005C9 14.0838 8.854 13.7295 8.562 13.4375C8.27 13.1455 7.916 12.9998 7.5 13.0005C7.08334 13.0005 6.729 13.1465 6.437 13.4385C6.145 13.7305 5.99934 14.0845 6 14.5005C6 14.9172 6.146 15.2715 6.438 15.5635C6.73 15.8555 7.084 16.0012 7.5 16.0005ZM16.5 16.0005C16.9167 16.0005 17.271 15.8545 17.563 15.5625C17.855 15.2705 18.0007 14.9165 18 14.5005C18 14.0838 17.854 13.7295 17.562 13.4375C17.27 13.1455 16.916 12.9998 16.5 13.0005C16.0833 13.0005 15.729 13.1465 15.437 13.4385C15.145 13.7305 14.9993 14.0845 15 14.5005C15 14.9172 15.146 15.2715 15.438 15.5635C15.73 15.8555 16.084 16.0012 16.5 16.0005ZM5 17.0005H19V12.0005H5V17.0005Z" fill="#272727"/>
</svg>
