<svg width="36" height="28" viewBox="0 0 36 28" fill="none" xmlns="http://www.w3.org/2000/svg">
<path d="M29.3813 12.4563C29.3813 12.4563 29.8562 14.7812 29.9625 15.2687H27.875C28.0812 14.7125 28.875 12.55 28.875 12.55C28.8625 12.5688 29.0812 11.9812 29.2062 11.6187L29.3813 12.4563ZM36 3V25C36 26.6562 34.6562 28 33 28H3C1.34375 28 0 26.6562 0 25V3C0 1.34375 1.34375 0 3 0H33C34.6562 0 36 1.34375 36 3ZM9.53125 18.7L13.4812 9H10.825L8.36875 15.625L8.1 14.2812L7.225 9.81875C7.08125 9.2 6.6375 9.025 6.0875 9H2.04375L2 9.19375C2.9875 9.44375 3.86875 9.80625 4.6375 10.2625L6.875 18.7H9.53125ZM15.4312 18.7125L17.0063 9H14.4937L12.925 18.7125H15.4312ZM24.175 15.5375C24.1875 14.4313 23.5125 13.5875 22.0688 12.8938C21.1875 12.45 20.65 12.15 20.65 11.6938C20.6625 11.2812 21.1063 10.8562 22.0938 10.8562C22.9125 10.8375 23.5125 11.0312 23.9625 11.225L24.1875 11.3313L24.5312 9.23125C24.0375 9.0375 23.25 8.81875 22.2812 8.81875C19.8 8.81875 18.0563 10.1438 18.0438 12.0312C18.025 13.425 19.2937 14.2 20.2437 14.6688C21.2125 15.1438 21.5438 15.4563 21.5438 15.875C21.5312 16.525 20.7563 16.825 20.0375 16.825C19.0375 16.825 18.5 16.6687 17.6812 16.3062L17.35 16.15L17 18.3312C17.5875 18.6 18.675 18.8375 19.8 18.85C22.4375 18.8563 24.1562 17.55 24.175 15.5375ZM33 18.7125L30.975 9H29.0312C28.4312 9 27.975 9.175 27.7188 9.80625L23.9875 18.7125H26.625C26.625 18.7125 27.0562 17.5125 27.15 17.2563H30.375C30.45 17.6 30.675 18.7125 30.675 18.7125H33Z" fill="#053654"/>
</svg>
